ISO-10303-21;
HEADER;
FILE_DESCRIPTION(('FreeCAD Model'),'2;1');
FILE_NAME('Open CASCADE Shape Model','2026-09-10T14:31:41',('FreeCAD'),(
    'FreeCAD'),'Open CASCADE STEP processor 7.8','FreeCAD','Unknown');
FILE_SCHEMA(('AUTOMOTIVE_DESIGN { 1 0 10303 214 1 1 1 1 }'));
ENDSEC;
DATA;
#1 = APPLICATION_PROTOCOL_DEFINITION('international standard',
  'automotive_design',2000,#2);
#2 = APPLICATION_CONTEXT(
  'core data for automotive mechanical design processes');
#3 = SHAPE_DEFINITION_REPRESENTATION(#4,#10);
#4 = PRODUCT_DEFINITION_SHAPE('','',#5);
#5 = PRODUCT_DEFINITION('design','',#6,#9);
#6 = PRODUCT_DEFINITION_FORMATION('','',#7);
#7 = PRODUCT('Open CASCADE STEP translator 7.8 11',
  'Open CASCADE STEP translator 7.8 11','',(#8));
#8 = PRODUCT_CONTEXT('',#2,'mechanical');
#9 = PRODUCT_DEFINITION_CONTEXT('part definition',#2,'design');
#10 = SHAPE_REPRESENTATION('',(#11,#15,#23,#31,#39,#47,#55,#63,#71,#79,
    #87,#96,#104,#112,#120,#128,#136),#144);
#11 = AXIS2_PLACEMENT_3D('',#12,#13,#14);
#12 = CARTESIAN_POINT('',(0.,0.,0.));
#13 = DIRECTION('',(0.,0.,1.));
#14 = DIRECTION('',(1.,0.,-0.));
#15 = GEOMETRIC_CURVE_SET('',(#16));
#16 = TRIMMED_CURVE('',#17,(#21,PARAMETER_VALUE(0.)),(#22,
    PARAMETER_VALUE(2.7432E+03)),.T.,.PARAMETER.);
#17 = LINE('',#18,#19);
#18 = CARTESIAN_POINT('',(-8.524599332E+03,175.723219,0.));
#19 = VECTOR('',#20,1.);
#20 = DIRECTION('',(1.,0.,0.));
#21 = CARTESIAN_POINT('',(-8.524599332E+03,175.723219,0.));
#22 = CARTESIAN_POINT('',(-5.781399332E+03,175.723219,0.));
#23 = GEOMETRIC_CURVE_SET('',(#24));
#24 = TRIMMED_CURVE('',#25,(#29,PARAMETER_VALUE(0.)),(#30,
    PARAMETER_VALUE(1.2192E+03)),.T.,.PARAMETER.);
#25 = LINE('',#26,#27);
#26 = CARTESIAN_POINT('',(-4.943199332E+03,175.723219,0.));
#27 = VECTOR('',#28,1.);
#28 = DIRECTION('',(1.,0.,0.));
#29 = CARTESIAN_POINT('',(-4.943199332E+03,175.723219,0.));
#30 = CARTESIAN_POINT('',(-3.723999332E+03,175.723219,0.));
#31 = GEOMETRIC_CURVE_SET('',(#32));
#32 = TRIMMED_CURVE('',#33,(#37,PARAMETER_VALUE(0.)),(#38,
    PARAMETER_VALUE(2.7432E+03)),.T.,.PARAMETER.);
#33 = LINE('',#34,#35);
#34 = CARTESIAN_POINT('',(-8.524599332E+03,295.723219,0.));
#35 = VECTOR('',#36,1.);
#36 = DIRECTION('',(1.,0.,0.));
#37 = CARTESIAN_POINT('',(-8.524599332E+03,295.723219,0.));
#38 = CARTESIAN_POINT('',(-5.781399332E+03,295.723219,0.));
#39 = GEOMETRIC_CURVE_SET('',(#40));
#40 = TRIMMED_CURVE('',#41,(#45,PARAMETER_VALUE(0.)),(#46,
    PARAMETER_VALUE(1.2192E+03)),.T.,.PARAMETER.);
#41 = LINE('',#42,#43);
#42 = CARTESIAN_POINT('',(-4.943199332E+03,295.723219,0.));
#43 = VECTOR('',#44,1.);
#44 = DIRECTION('',(1.,0.,0.));
#45 = CARTESIAN_POINT('',(-4.943199332E+03,295.723219,0.));
#46 = CARTESIAN_POINT('',(-3.723999332E+03,295.723219,0.));
#47 = GEOMETRIC_CURVE_SET('',(#48));
#48 = TRIMMED_CURVE('',#49,(#53,PARAMETER_VALUE(0.)),(#54,
    PARAMETER_VALUE(914.4)),.T.,.PARAMETER.);
#49 = LINE('',#50,#51);
#50 = CARTESIAN_POINT('',(-3.723999332E+03,175.723219,0.));
#51 = VECTOR('',#52,1.);
#52 = DIRECTION('',(0.,-1.,0.));
#53 = CARTESIAN_POINT('',(-3.723999332E+03,175.723219,0.));
#54 = CARTESIAN_POINT('',(-3.723999332E+03,-738.676781,0.));
#55 = GEOMETRIC_CURVE_SET('',(#56));
#56 = TRIMMED_CURVE('',#57,(#61,PARAMETER_VALUE(0.)),(#62,
    PARAMETER_VALUE(3.0734E+03)),.T.,.PARAMETER.);
#57 = LINE('',#58,#59);
#58 = CARTESIAN_POINT('',(-3.723999332E+03,-1.627676781E+03,0.));
#59 = VECTOR('',#60,1.);
#60 = DIRECTION('',(0.,-1.,0.));
#61 = CARTESIAN_POINT('',(-3.723999332E+03,-1.627676781E+03,0.));
#62 = CARTESIAN_POINT('',(-3.723999332E+03,-4.701076781E+03,0.));
#63 = GEOMETRIC_CURVE_SET('',(#64));
#64 = TRIMMED_CURVE('',#65,(#69,PARAMETER_VALUE(0.)),(#70,
    PARAMETER_VALUE(914.4)),.T.,.PARAMETER.);
#65 = LINE('',#66,#67);
#66 = CARTESIAN_POINT('',(-3.603999332E+03,175.723219,0.));
#67 = VECTOR('',#68,1.);
#68 = DIRECTION('',(0.,-1.,0.));
#69 = CARTESIAN_POINT('',(-3.603999332E+03,175.723219,0.));
#70 = CARTESIAN_POINT('',(-3.603999332E+03,-738.676781,0.));
#71 = GEOMETRIC_CURVE_SET('',(#72));
#72 = TRIMMED_CURVE('',#73,(#77,PARAMETER_VALUE(0.)),(#78,
    PARAMETER_VALUE(3.0734E+03)),.T.,.PARAMETER.);
#73 = LINE('',#74,#75);
#74 = CARTESIAN_POINT('',(-3.603999332E+03,-1.627676781E+03,0.));
#75 = VECTOR('',#76,1.);
#76 = DIRECTION('',(0.,-1.,0.));
#77 = CARTESIAN_POINT('',(-3.603999332E+03,-1.627676781E+03,0.));
#78 = CARTESIAN_POINT('',(-3.603999332E+03,-4.701076781E+03,0.));
#79 = GEOMETRIC_CURVE_SET('',(#80));
#80 = TRIMMED_CURVE('',#81,(#85,PARAMETER_VALUE(0.)),(#86,
    PARAMETER_VALUE(1.388343039E+03)),.T.,.PARAMETER.);
#81 = LINE('',#82,#83);
#82 = CARTESIAN_POINT('',(-3.723999332E+03,-4.701076781E+03,0.));
#83 = VECTOR('',#84,1.);
#84 = DIRECTION('',(0.,-1.,0.));
#85 = CARTESIAN_POINT('',(-3.723999332E+03,-4.701076781E+03,0.));
#86 = CARTESIAN_POINT('',(-3.723999332E+03,-6.08941982E+03,0.));
#87 = GEOMETRIC_CURVE_SET('',(#88));
#88 = TRIMMED_CURVE('',#89,(#94,PARAMETER_VALUE(0.)),(#95,
    PARAMETER_VALUE(1.507377193134)),.T.,.PARAMETER.);
#89 = CIRCLE('',#90,3.376282803925E+03);
#90 = AXIS2_PLACEMENT_3D('',#91,#92,#93);
#91 = CARTESIAN_POINT('',(-3.958964674E+03,-2.7213229E+03,0.));
#92 = DIRECTION('',(0.,0.,-1.));
#93 = DIRECTION('',(6.959290913528E-02,-0.997575474337,0.));
#94 = CARTESIAN_POINT('',(-3.723999331611E+03,-6.08941981962E+03,0.));
#95 = CARTESIAN_POINT('',(-7.305399331611E+03,-3.16927452062E+03,0.));
#96 = GEOMETRIC_CURVE_SET('',(#97));
#97 = TRIMMED_CURVE('',#98,(#102,PARAMETER_VALUE(0.)),(#103,
    PARAMETER_VALUE(1.2192E+03)),.T.,.PARAMETER.);
#98 = LINE('',#99,#100);
#99 = CARTESIAN_POINT('',(-7.305399332E+03,-3.169274521E+03,0.));
#100 = VECTOR('',#101,1.);
#101 = DIRECTION('',(-1.,0.,0.));
#102 = CARTESIAN_POINT('',(-7.305399332E+03,-3.169274521E+03,0.));
#103 = CARTESIAN_POINT('',(-8.524599332E+03,-3.169274521E+03,0.));
#104 = GEOMETRIC_CURVE_SET('',(#105));
#105 = TRIMMED_CURVE('',#106,(#110,PARAMETER_VALUE(0.)),(#111,
    PARAMETER_VALUE(3.34499774E+03)),.T.,.PARAMETER.);
#106 = LINE('',#107,#108);
#107 = CARTESIAN_POINT('',(-8.524599332E+03,-3.169274521E+03,0.));
#108 = VECTOR('',#109,1.);
#109 = DIRECTION('',(0.,1.,0.));
#110 = CARTESIAN_POINT('',(-8.524599332E+03,-3.169274521E+03,0.));
#111 = CARTESIAN_POINT('',(-8.524599332E+03,175.723219,0.));
#112 = GEOMETRIC_CURVE_SET('',(#113));
#113 = TRIMMED_CURVE('',#114,(#118,PARAMETER_VALUE(0.)),(#119,
    PARAMETER_VALUE(180.)),.T.,.PARAMETER.);
#114 = LINE('',#115,#116);
#115 = CARTESIAN_POINT('',(-3.633999332E+03,-1.627676781E+03,0.));
#116 = VECTOR('',#117,1.);
#117 = DIRECTION('',(-1.,0.,0.));
#118 = CARTESIAN_POINT('',(-3.633999332E+03,-1.627676781E+03,0.));
#119 = CARTESIAN_POINT('',(-3.813999332E+03,-1.627676781E+03,0.));
#120 = GEOMETRIC_CURVE_SET('',(#121));
#121 = TRIMMED_CURVE('',#122,(#126,PARAMETER_VALUE(0.)),(#127,
    PARAMETER_VALUE(180.)),.T.,.PARAMETER.);
#122 = LINE('',#123,#124);
#123 = CARTESIAN_POINT('',(-3.633999332E+03,-738.676781,0.));
#124 = VECTOR('',#125,1.);
#125 = DIRECTION('',(-1.,0.,0.));
#126 = CARTESIAN_POINT('',(-3.633999332E+03,-738.676781,0.));
#127 = CARTESIAN_POINT('',(-3.813999332E+03,-738.676781,0.));
#128 = GEOMETRIC_CURVE_SET('',(#129));
#129 = TRIMMED_CURVE('',#130,(#134,PARAMETER_VALUE(0.)),(#135,
    PARAMETER_VALUE(180.)),.T.,.PARAMETER.);
#130 = LINE('',#131,#132);
#131 = CARTESIAN_POINT('',(-4.943199332E+03,265.723219,0.));
#132 = VECTOR('',#133,1.);
#133 = DIRECTION('',(0.,-1.,0.));
#134 = CARTESIAN_POINT('',(-4.943199332E+03,265.723219,0.));
#135 = CARTESIAN_POINT('',(-4.943199332E+03,85.723219,0.));
#136 = GEOMETRIC_CURVE_SET('',(#137));
#137 = TRIMMED_CURVE('',#138,(#142,PARAMETER_VALUE(0.)),(#143,
    PARAMETER_VALUE(180.)),.T.,.PARAMETER.);
#138 = LINE('',#139,#140);
#139 = CARTESIAN_POINT('',(-5.781399332E+03,265.723219,0.));
#140 = VECTOR('',#141,1.);
#141 = DIRECTION('',(0.,-1.,0.));
#142 = CARTESIAN_POINT('',(-5.781399332E+03,265.723219,0.));
#143 = CARTESIAN_POINT('',(-5.781399332E+03,85.723219,0.));
#144 = ( GEOMETRIC_REPRESENTATION_CONTEXT(3) 
GLOBAL_UNCERTAINTY_ASSIGNED_CONTEXT((#148)) GLOBAL_UNIT_ASSIGNED_CONTEXT
((#145,#146,#147)) REPRESENTATION_CONTEXT('Context #1',
  '3D Context with UNIT and UNCERTAINTY') );
#145 = ( LENGTH_UNIT() NAMED_UNIT(*) SI_UNIT(.MILLI.,.METRE.) );
#146 = ( NAMED_UNIT(*) PLANE_ANGLE_UNIT() SI_UNIT($,.RADIAN.) );
#147 = ( NAMED_UNIT(*) SI_UNIT($,.STERADIAN.) SOLID_ANGLE_UNIT() );
#148 = UNCERTAINTY_MEASURE_WITH_UNIT(LENGTH_MEASURE(1.E-07),#145,
  'distance_accuracy_value','confusion accuracy');
#149 = PRODUCT_RELATED_PRODUCT_CATEGORY('part',$,(#7));
ENDSEC;
END-ISO-10303-21;
