ISO-10303-21;
HEADER;
FILE_DESCRIPTION(('FreeCAD Model'),'2;1');
FILE_NAME('Open CASCADE Shape Model','2026-09-10T14:31:40',('FreeCAD'),(
    'FreeCAD'),'Open CASCADE STEP processor 7.8','FreeCAD','Unknown');
FILE_SCHEMA(('AUTOMOTIVE_DESIGN { 1 0 10303 214 1 1 1 1 }'));
ENDSEC;
DATA;
#1 = APPLICATION_PROTOCOL_DEFINITION('international standard',
  'automotive_design',2000,#2);
#2 = APPLICATION_CONTEXT(
  'core data for automotive mechanical design processes');
#3 = SHAPE_DEFINITION_REPRESENTATION(#4,#10);
#4 = PRODUCT_DEFINITION_SHAPE('','',#5);
#5 = PRODUCT_DEFINITION('design','',#6,#9);
#6 = PRODUCT_DEFINITION_FORMATION('','',#7);
#7 = PRODUCT('Open CASCADE STEP translator 7.8 10',
  'Open CASCADE STEP translator 7.8 10','',(#8));
#8 = PRODUCT_CONTEXT('',#2,'mechanical');
#9 = PRODUCT_DEFINITION_CONTEXT('part definition',#2,'design');
#10 = SHAPE_REPRESENTATION('',(#11,#15,#23,#31,#39,#47,#55,#63,#71,#79,
    #87,#95,#103,#111,#119,#127,#135,#143,#151,#180,#209),#238);
#11 = AXIS2_PLACEMENT_3D('',#12,#13,#14);
#12 = CARTESIAN_POINT('',(0.,0.,0.));
#13 = DIRECTION('',(0.,0.,1.));
#14 = DIRECTION('',(1.,0.,-0.));
#15 = GEOMETRIC_CURVE_SET('',(#16));
#16 = TRIMMED_CURVE('',#17,(#21,PARAMETER_VALUE(0.)),(#22,
    PARAMETER_VALUE(1.214429296E+03)),.T.,.PARAMETER.);
#17 = LINE('',#18,#19);
#18 = CARTESIAN_POINT('',(5.572137801E+03,5.609548192E+03,0.));
#19 = VECTOR('',#20,1.);
#20 = DIRECTION('',(1.,0.,0.));
#21 = CARTESIAN_POINT('',(5.572137801E+03,5.609548192E+03,0.));
#22 = CARTESIAN_POINT('',(6.786567097E+03,5.609548192E+03,0.));
#23 = GEOMETRIC_CURVE_SET('',(#24));
#24 = TRIMMED_CURVE('',#25,(#29,PARAMETER_VALUE(0.)),(#30,
    PARAMETER_VALUE(1.384708704E+03)),.T.,.PARAMETER.);
#25 = LINE('',#26,#27);
#26 = CARTESIAN_POINT('',(7.540229097E+03,5.609548192E+03,0.));
#27 = VECTOR('',#28,1.);
#28 = DIRECTION('',(1.,0.,0.));
#29 = CARTESIAN_POINT('',(7.540229097E+03,5.609548192E+03,0.));
#30 = CARTESIAN_POINT('',(8.924937801E+03,5.609548192E+03,0.));
#31 = GEOMETRIC_CURVE_SET('',(#32));
#32 = TRIMMED_CURVE('',#33,(#37,PARAMETER_VALUE(0.)),(#38,
    PARAMETER_VALUE(1.214429296E+03)),.T.,.PARAMETER.);
#33 = LINE('',#34,#35);
#34 = CARTESIAN_POINT('',(5.572137801E+03,5.729548192E+03,0.));
#35 = VECTOR('',#36,1.);
#36 = DIRECTION('',(1.,0.,0.));
#37 = CARTESIAN_POINT('',(5.572137801E+03,5.729548192E+03,0.));
#38 = CARTESIAN_POINT('',(6.786567097E+03,5.729548192E+03,0.));
#39 = GEOMETRIC_CURVE_SET('',(#40));
#40 = TRIMMED_CURVE('',#41,(#45,PARAMETER_VALUE(0.)),(#46,
    PARAMETER_VALUE(1.384708704E+03)),.T.,.PARAMETER.);
#41 = LINE('',#42,#43);
#42 = CARTESIAN_POINT('',(7.540229097E+03,5.729548192E+03,0.));
#43 = VECTOR('',#44,1.);
#44 = DIRECTION('',(1.,0.,0.));
#45 = CARTESIAN_POINT('',(7.540229097E+03,5.729548192E+03,0.));
#46 = CARTESIAN_POINT('',(8.924937801E+03,5.729548192E+03,0.));
#47 = GEOMETRIC_CURVE_SET('',(#48));
#48 = TRIMMED_CURVE('',#49,(#53,PARAMETER_VALUE(0.)),(#54,
    PARAMETER_VALUE(2.3622E+03)),.T.,.PARAMETER.);
#49 = LINE('',#50,#51);
#50 = CARTESIAN_POINT('',(8.924937801E+03,5.609548192E+03,0.));
#51 = VECTOR('',#52,1.);
#52 = DIRECTION('',(0.,-1.,0.));
#53 = CARTESIAN_POINT('',(8.924937801E+03,5.609548192E+03,0.));
#54 = CARTESIAN_POINT('',(8.924937801E+03,3.247348192E+03,0.));
#55 = GEOMETRIC_CURVE_SET('',(#56));
#56 = TRIMMED_CURVE('',#57,(#61,PARAMETER_VALUE(0.)),(#62,
    PARAMETER_VALUE(2.3622E+03)),.T.,.PARAMETER.);
#57 = LINE('',#58,#59);
#58 = CARTESIAN_POINT('',(9.044937801E+03,5.609548192E+03,0.));
#59 = VECTOR('',#60,1.);
#60 = DIRECTION('',(0.,-1.,0.));
#61 = CARTESIAN_POINT('',(9.044937801E+03,5.609548192E+03,0.));
#62 = CARTESIAN_POINT('',(9.044937801E+03,3.247348192E+03,0.));
#63 = GEOMETRIC_CURVE_SET('',(#64));
#64 = TRIMMED_CURVE('',#65,(#69,PARAMETER_VALUE(0.)),(#70,
    PARAMETER_VALUE(3.3528E+03)),.T.,.PARAMETER.);
#65 = LINE('',#66,#67);
#66 = CARTESIAN_POINT('',(8.924937801E+03,3.247348192E+03,0.));
#67 = VECTOR('',#68,1.);
#68 = DIRECTION('',(-1.,0.,0.));
#69 = CARTESIAN_POINT('',(8.924937801E+03,3.247348192E+03,0.));
#70 = CARTESIAN_POINT('',(5.572137801E+03,3.247348192E+03,0.));
#71 = GEOMETRIC_CURVE_SET('',(#72));
#72 = TRIMMED_CURVE('',#73,(#77,PARAMETER_VALUE(0.)),(#78,
    PARAMETER_VALUE(3.3528E+03)),.T.,.PARAMETER.);
#73 = LINE('',#74,#75);
#74 = CARTESIAN_POINT('',(8.924937801E+03,3.127348192E+03,0.));
#75 = VECTOR('',#76,1.);
#76 = DIRECTION('',(-1.,0.,0.));
#77 = CARTESIAN_POINT('',(8.924937801E+03,3.127348192E+03,0.));
#78 = CARTESIAN_POINT('',(5.572137801E+03,3.127348192E+03,0.));
#79 = GEOMETRIC_CURVE_SET('',(#80));
#80 = TRIMMED_CURVE('',#81,(#85,PARAMETER_VALUE(0.)),(#86,
    PARAMETER_VALUE(218.760051)),.T.,.PARAMETER.);
#81 = LINE('',#82,#83);
#82 = CARTESIAN_POINT('',(5.572137801E+03,3.247348192E+03,0.));
#83 = VECTOR('',#84,1.);
#84 = DIRECTION('',(0.,1.,0.));
#85 = CARTESIAN_POINT('',(5.572137801E+03,3.247348192E+03,0.));
#86 = CARTESIAN_POINT('',(5.572137801E+03,3.466108243E+03,0.));
#87 = GEOMETRIC_CURVE_SET('',(#88));
#88 = TRIMMED_CURVE('',#89,(#93,PARAMETER_VALUE(0.)),(#94,
    PARAMETER_VALUE(1.470790949E+03)),.T.,.PARAMETER.);
#89 = LINE('',#90,#91);
#90 = CARTESIAN_POINT('',(5.572137801E+03,4.138757243E+03,0.));
#91 = VECTOR('',#92,1.);
#92 = DIRECTION('',(0.,1.,0.));
#93 = CARTESIAN_POINT('',(5.572137801E+03,4.138757243E+03,0.));
#94 = CARTESIAN_POINT('',(5.572137801E+03,5.609548192E+03,0.));
#95 = GEOMETRIC_CURVE_SET('',(#96));
#96 = TRIMMED_CURVE('',#97,(#101,PARAMETER_VALUE(0.)),(#102,
    PARAMETER_VALUE(218.760051)),.T.,.PARAMETER.);
#97 = LINE('',#98,#99);
#98 = CARTESIAN_POINT('',(5.452137801E+03,3.247348192E+03,0.));
#99 = VECTOR('',#100,1.);
#100 = DIRECTION('',(0.,1.,0.));
#101 = CARTESIAN_POINT('',(5.452137801E+03,3.247348192E+03,0.));
#102 = CARTESIAN_POINT('',(5.452137801E+03,3.466108243E+03,0.));
#103 = GEOMETRIC_CURVE_SET('',(#104));
#104 = TRIMMED_CURVE('',#105,(#109,PARAMETER_VALUE(0.)),(#110,
    PARAMETER_VALUE(1.470790949E+03)),.T.,.PARAMETER.);
#105 = LINE('',#106,#107);
#106 = CARTESIAN_POINT('',(5.452137801E+03,4.138757243E+03,0.));
#107 = VECTOR('',#108,1.);
#108 = DIRECTION('',(0.,1.,0.));
#109 = CARTESIAN_POINT('',(5.452137801E+03,4.138757243E+03,0.));
#110 = CARTESIAN_POINT('',(5.452137801E+03,5.609548192E+03,0.));
#111 = GEOMETRIC_CURVE_SET('',(#112));
#112 = TRIMMED_CURVE('',#113,(#117,PARAMETER_VALUE(0.)),(#118,
    PARAMETER_VALUE(180.)),.T.,.PARAMETER.);
#113 = LINE('',#114,#115);
#114 = CARTESIAN_POINT('',(6.786567097E+03,5.519548192E+03,0.));
#115 = VECTOR('',#116,1.);
#116 = DIRECTION('',(0.,1.,0.));
#117 = CARTESIAN_POINT('',(6.786567097E+03,5.519548192E+03,0.));
#118 = CARTESIAN_POINT('',(6.786567097E+03,5.699548192E+03,0.));
#119 = GEOMETRIC_CURVE_SET('',(#120));
#120 = TRIMMED_CURVE('',#121,(#125,PARAMETER_VALUE(0.)),(#126,
    PARAMETER_VALUE(180.)),.T.,.PARAMETER.);
#121 = LINE('',#122,#123);
#122 = CARTESIAN_POINT('',(7.540229097E+03,5.519548192E+03,0.));
#123 = VECTOR('',#124,1.);
#124 = DIRECTION('',(0.,1.,0.));
#125 = CARTESIAN_POINT('',(7.540229097E+03,5.519548192E+03,0.));
#126 = CARTESIAN_POINT('',(7.540229097E+03,5.699548192E+03,0.));
#127 = GEOMETRIC_CURVE_SET('',(#128));
#128 = TRIMMED_CURVE('',#129,(#133,PARAMETER_VALUE(0.)),(#134,
    PARAMETER_VALUE(753.662)),.T.,.PARAMETER.);
#129 = LINE('',#130,#131);
#130 = CARTESIAN_POINT('',(6.786567097E+03,5.609548192E+03,0.));
#131 = VECTOR('',#132,1.);
#132 = DIRECTION('',(1.,0.,0.));
#133 = CARTESIAN_POINT('',(6.786567097E+03,5.609548192E+03,0.));
#134 = CARTESIAN_POINT('',(7.540229097E+03,5.609548192E+03,0.));
#135 = GEOMETRIC_CURVE_SET('',(#136));
#136 = TRIMMED_CURVE('',#137,(#141,PARAMETER_VALUE(0.)),(#142,
    PARAMETER_VALUE(179.99999999999)),.T.,.PARAMETER.);
#137 = LINE('',#138,#139);
#138 = CARTESIAN_POINT('',(5.482137801E+03,4.138757243E+03,0.));
#139 = VECTOR('',#140,1.);
#140 = DIRECTION('',(1.,0.,0.));
#141 = CARTESIAN_POINT('',(5.482137801E+03,4.138757243E+03,0.));
#142 = CARTESIAN_POINT('',(5.662137801E+03,4.138757243E+03,0.));
#143 = GEOMETRIC_CURVE_SET('',(#144));
#144 = TRIMMED_CURVE('',#145,(#149,PARAMETER_VALUE(0.)),(#150,
    PARAMETER_VALUE(179.99999999999)),.T.,.PARAMETER.);
#145 = LINE('',#146,#147);
#146 = CARTESIAN_POINT('',(5.482137801E+03,3.466108243E+03,0.));
#147 = VECTOR('',#148,1.);
#148 = DIRECTION('',(1.,0.,0.));
#149 = CARTESIAN_POINT('',(5.482137801E+03,3.466108243E+03,0.));
#150 = CARTESIAN_POINT('',(5.662137801E+03,3.466108243E+03,0.));
#151 = GEOMETRIC_CURVE_SET('',(#152,#159,#166,#173));
#152 = TRIMMED_CURVE('',#153,(#157,PARAMETER_VALUE(0.)),(#158,
    PARAMETER_VALUE(438.87954011877)),.T.,.PARAMETER.);
#153 = LINE('',#154,#155);
#154 = CARTESIAN_POINT('',(5.805116152586E+03,4.586556658174E+03,0.));
#155 = VECTOR('',#156,1.);
#156 = DIRECTION('',(1.,0.,0.));
#157 = CARTESIAN_POINT('',(5.805116152586E+03,4.586556658174E+03,0.));
#158 = CARTESIAN_POINT('',(6.243995692705E+03,4.586556658174E+03,0.));
#159 = TRIMMED_CURVE('',#160,(#164,PARAMETER_VALUE(0.)),(#165,
    PARAMETER_VALUE(650.6754844605)),.T.,.PARAMETER.);
#160 = LINE('',#161,#162);
#161 = CARTESIAN_POINT('',(6.243995692705E+03,4.586556658174E+03,0.));
#162 = VECTOR('',#163,1.);
#163 = DIRECTION('',(0.,1.,0.));
#164 = CARTESIAN_POINT('',(6.243995692705E+03,4.586556658174E+03,0.));
#165 = CARTESIAN_POINT('',(6.243995692705E+03,5.237232142635E+03,0.));
#166 = TRIMMED_CURVE('',#167,(#171,PARAMETER_VALUE(0.)),(#172,
    PARAMETER_VALUE(438.87954011877)),.T.,.PARAMETER.);
#167 = LINE('',#168,#169);
#168 = CARTESIAN_POINT('',(6.243995692705E+03,5.237232142635E+03,0.));
#169 = VECTOR('',#170,1.);
#170 = DIRECTION('',(-1.,0.,0.));
#171 = CARTESIAN_POINT('',(6.243995692705E+03,5.237232142635E+03,0.));
#172 = CARTESIAN_POINT('',(5.805116152586E+03,5.237232142635E+03,0.));
#173 = TRIMMED_CURVE('',#174,(#178,PARAMETER_VALUE(0.)),(#179,
    PARAMETER_VALUE(650.6754844605)),.T.,.PARAMETER.);
#174 = LINE('',#175,#176);
#175 = CARTESIAN_POINT('',(5.805116152586E+03,5.237232142635E+03,0.));
#176 = VECTOR('',#177,1.);
#177 = DIRECTION('',(0.,-1.,0.));
#178 = CARTESIAN_POINT('',(5.805116152586E+03,5.237232142635E+03,0.));
#179 = CARTESIAN_POINT('',(5.805116152586E+03,4.586556658174E+03,0.));
#180 = GEOMETRIC_CURVE_SET('',(#181,#188,#195,#202));
#181 = TRIMMED_CURVE('',#182,(#186,PARAMETER_VALUE(0.)),(#187,
    PARAMETER_VALUE(562.95154442066)),.T.,.PARAMETER.);
#182 = LINE('',#183,#184);
#183 = CARTESIAN_POINT('',(5.774885726538E+03,4.339150445813E+03,0.));
#184 = VECTOR('',#185,1.);
#185 = DIRECTION('',(1.,0.,0.));
#186 = CARTESIAN_POINT('',(5.774885726538E+03,4.339150445813E+03,0.));
#187 = CARTESIAN_POINT('',(6.337837270958E+03,4.339150445813E+03,0.));
#188 = TRIMMED_CURVE('',#189,(#193,PARAMETER_VALUE(0.)),(#194,
    PARAMETER_VALUE(1.048948672299E+03)),.T.,.PARAMETER.);
#189 = LINE('',#190,#191);
#190 = CARTESIAN_POINT('',(6.337837270958E+03,4.339150445813E+03,0.));
#191 = VECTOR('',#192,1.);
#192 = DIRECTION('',(0.,1.,0.));
#193 = CARTESIAN_POINT('',(6.337837270958E+03,4.339150445813E+03,0.));
#194 = CARTESIAN_POINT('',(6.337837270958E+03,5.388099118111E+03,0.));
#195 = TRIMMED_CURVE('',#196,(#200,PARAMETER_VALUE(0.)),(#201,
    PARAMETER_VALUE(562.95154442066)),.T.,.PARAMETER.);
#196 = LINE('',#197,#198);
#197 = CARTESIAN_POINT('',(6.337837270958E+03,5.388099118111E+03,0.));
#198 = VECTOR('',#199,1.);
#199 = DIRECTION('',(-1.,0.,0.));
#200 = CARTESIAN_POINT('',(6.337837270958E+03,5.388099118111E+03,0.));
#201 = CARTESIAN_POINT('',(5.774885726538E+03,5.388099118111E+03,0.));
#202 = TRIMMED_CURVE('',#203,(#207,PARAMETER_VALUE(0.)),(#208,
    PARAMETER_VALUE(1.048948672299E+03)),.T.,.PARAMETER.);
#203 = LINE('',#204,#205);
#204 = CARTESIAN_POINT('',(5.774885726538E+03,5.388099118111E+03,0.));
#205 = VECTOR('',#206,1.);
#206 = DIRECTION('',(0.,-1.,0.));
#207 = CARTESIAN_POINT('',(5.774885726538E+03,5.388099118111E+03,0.));
#208 = CARTESIAN_POINT('',(5.774885726538E+03,4.339150445813E+03,0.));
#209 = GEOMETRIC_CURVE_SET('',(#210,#217,#224,#231));
#210 = TRIMMED_CURVE('',#211,(#215,PARAMETER_VALUE(0.)),(#216,
    PARAMETER_VALUE(431.13713946624)),.T.,.PARAMETER.);
#211 = LINE('',#212,#213);
#212 = CARTESIAN_POINT('',(7.013950068211E+03,4.919645241602E+03,0.));
#213 = VECTOR('',#214,1.);
#214 = DIRECTION('',(1.,0.,0.));
#215 = CARTESIAN_POINT('',(7.013950068211E+03,4.919645241602E+03,0.));
#216 = CARTESIAN_POINT('',(7.445087207677E+03,4.919645241602E+03,0.));
#217 = TRIMMED_CURVE('',#218,(#222,PARAMETER_VALUE(0.)),(#223,
    PARAMETER_VALUE(637.5772913177)),.T.,.PARAMETER.);
#218 = LINE('',#219,#220);
#219 = CARTESIAN_POINT('',(7.445087207677E+03,4.919645241602E+03,0.));
#220 = VECTOR('',#221,1.);
#221 = DIRECTION('',(0.,1.,0.));
#222 = CARTESIAN_POINT('',(7.445087207677E+03,4.919645241602E+03,0.));
#223 = CARTESIAN_POINT('',(7.445087207677E+03,5.55722253292E+03,0.));
#224 = TRIMMED_CURVE('',#225,(#229,PARAMETER_VALUE(0.)),(#230,
    PARAMETER_VALUE(431.13713946624)),.T.,.PARAMETER.);
#225 = LINE('',#226,#227);
#226 = CARTESIAN_POINT('',(7.445087207677E+03,5.55722253292E+03,0.));
#227 = VECTOR('',#228,1.);
#228 = DIRECTION('',(-1.,0.,0.));
#229 = CARTESIAN_POINT('',(7.445087207677E+03,5.55722253292E+03,0.));
#230 = CARTESIAN_POINT('',(7.013950068211E+03,5.55722253292E+03,0.));
#231 = TRIMMED_CURVE('',#232,(#236,PARAMETER_VALUE(0.)),(#237,
    PARAMETER_VALUE(637.5772913177)),.T.,.PARAMETER.);
#232 = LINE('',#233,#234);
#233 = CARTESIAN_POINT('',(7.013950068211E+03,5.55722253292E+03,0.));
#234 = VECTOR('',#235,1.);
#235 = DIRECTION('',(0.,-1.,0.));
#236 = CARTESIAN_POINT('',(7.013950068211E+03,5.55722253292E+03,0.));
#237 = CARTESIAN_POINT('',(7.013950068211E+03,4.919645241602E+03,0.));
#238 = ( GEOMETRIC_REPRESENTATION_CONTEXT(3) 
GLOBAL_UNCERTAINTY_ASSIGNED_CONTEXT((#242)) GLOBAL_UNIT_ASSIGNED_CONTEXT
((#239,#240,#241)) REPRESENTATION_CONTEXT('Context #1',
  '3D Context with UNIT and UNCERTAINTY') );
#239 = ( LENGTH_UNIT() NAMED_UNIT(*) SI_UNIT(.MILLI.,.METRE.) );
#240 = ( NAMED_UNIT(*) PLANE_ANGLE_UNIT() SI_UNIT($,.RADIAN.) );
#241 = ( NAMED_UNIT(*) SI_UNIT($,.STERADIAN.) SOLID_ANGLE_UNIT() );
#242 = UNCERTAINTY_MEASURE_WITH_UNIT(LENGTH_MEASURE(1.E-07),#239,
  'distance_accuracy_value','confusion accuracy');
#243 = PRODUCT_RELATED_PRODUCT_CATEGORY('part',$,(#7));
ENDSEC;
END-ISO-10303-21;
