ISO-10303-21;
HEADER;
FILE_DESCRIPTION(('FreeCAD Model'),'2;1');
FILE_NAME('Open CASCADE Shape Model','2026-09-10T14:31:41',('FreeCAD'),(
    'FreeCAD'),'Open CASCADE STEP processor 7.8','FreeCAD','Unknown');
FILE_SCHEMA(('AUTOMOTIVE_DESIGN { 1 0 10303 214 1 1 1 1 }'));
ENDSEC;
DATA;
#1 = APPLICATION_PROTOCOL_DEFINITION('international standard',
  'automotive_design',2000,#2);
#2 = APPLICATION_CONTEXT(
  'core data for automotive mechanical design processes');
#3 = SHAPE_DEFINITION_REPRESENTATION(#4,#10);
#4 = PRODUCT_DEFINITION_SHAPE('','',#5);
#5 = PRODUCT_DEFINITION('design','',#6,#9);
#6 = PRODUCT_DEFINITION_FORMATION('','',#7);
#7 = PRODUCT('Open CASCADE STEP translator 7.8 12',
  'Open CASCADE STEP translator 7.8 12','',(#8));
#8 = PRODUCT_CONTEXT('',#2,'mechanical');
#9 = PRODUCT_DEFINITION_CONTEXT('part definition',#2,'design');
#10 = SHAPE_REPRESENTATION('',(#11,#15,#23,#31,#39,#47,#55,#63,#71,#79,
    #87,#95,#103,#111,#119,#127,#135,#143,#151,#159,#167,#175,#183,#191,
    #199,#207,#215,#223),#252);
#11 = AXIS2_PLACEMENT_3D('',#12,#13,#14);
#12 = CARTESIAN_POINT('',(0.,0.,0.));
#13 = DIRECTION('',(0.,0.,1.));
#14 = DIRECTION('',(1.,0.,-0.));
#15 = GEOMETRIC_CURVE_SET('',(#16));
#16 = TRIMMED_CURVE('',#17,(#21,PARAMETER_VALUE(0.)),(#22,
    PARAMETER_VALUE(180.)),.T.,.PARAMETER.);
#17 = LINE('',#18,#19);
#18 = CARTESIAN_POINT('',(-4.943199332E+03,265.723219,0.));
#19 = VECTOR('',#20,1.);
#20 = DIRECTION('',(0.,-1.,0.));
#21 = CARTESIAN_POINT('',(-4.943199332E+03,265.723219,0.));
#22 = CARTESIAN_POINT('',(-4.943199332E+03,85.723219,0.));
#23 = GEOMETRIC_CURVE_SET('',(#24));
#24 = TRIMMED_CURVE('',#25,(#29,PARAMETER_VALUE(0.)),(#30,
    PARAMETER_VALUE(180.)),.T.,.PARAMETER.);
#25 = LINE('',#26,#27);
#26 = CARTESIAN_POINT('',(-5.781399332E+03,265.723219,0.));
#27 = VECTOR('',#28,1.);
#28 = DIRECTION('',(0.,-1.,0.));
#29 = CARTESIAN_POINT('',(-5.781399332E+03,265.723219,0.));
#30 = CARTESIAN_POINT('',(-5.781399332E+03,85.723219,0.));
#31 = GEOMETRIC_CURVE_SET('',(#32));
#32 = TRIMMED_CURVE('',#33,(#37,PARAMETER_VALUE(0.)),(#38,
    PARAMETER_VALUE(1.7272E+03)),.T.,.PARAMETER.);
#33 = LINE('',#34,#35);
#34 = CARTESIAN_POINT('',(-6.260002773E+03,5.685524999E+03,0.));
#35 = VECTOR('',#36,1.);
#36 = DIRECTION('',(1.,0.,0.));
#37 = CARTESIAN_POINT('',(-6.260002773E+03,5.685524999E+03,0.));
#38 = CARTESIAN_POINT('',(-4.532802773E+03,5.685524999E+03,0.));
#39 = GEOMETRIC_CURVE_SET('',(#40));
#40 = TRIMMED_CURVE('',#41,(#45,PARAMETER_VALUE(0.)),(#46,
    PARAMETER_VALUE(1.7272E+03)),.T.,.PARAMETER.);
#41 = LINE('',#42,#43);
#42 = CARTESIAN_POINT('',(-6.260002773E+03,5.805524999E+03,0.));
#43 = VECTOR('',#44,1.);
#44 = DIRECTION('',(1.,0.,0.));
#45 = CARTESIAN_POINT('',(-6.260002773E+03,5.805524999E+03,0.));
#46 = CARTESIAN_POINT('',(-4.532802773E+03,5.805524999E+03,0.));
#47 = GEOMETRIC_CURVE_SET('',(#48));
#48 = TRIMMED_CURVE('',#49,(#53,PARAMETER_VALUE(0.)),(#54,
    PARAMETER_VALUE(1.320800000049E+03)),.T.,.PARAMETER.);
#49 = LINE('',#50,#51);
#50 = CARTESIAN_POINT('',(-4.532802773E+03,5.685524999E+03,0.));
#51 = VECTOR('',#52,1.);
#52 = DIRECTION('',(2.692467822432E-02,-0.999637465135,0.));
#53 = CARTESIAN_POINT('',(-4.532802773E+03,5.685524999E+03,0.));
#54 = CARTESIAN_POINT('',(-4.497240658E+03,4.365203835E+03,0.));
#55 = GEOMETRIC_CURVE_SET('',(#56));
#56 = TRIMMED_CURVE('',#57,(#61,PARAMETER_VALUE(0.)),(#62,
    PARAMETER_VALUE(1.320800000049E+03)),.T.,.PARAMETER.);
#57 = LINE('',#58,#59);
#58 = CARTESIAN_POINT('',(-4.412846277184E+03,5.688755960387E+03,0.));
#59 = VECTOR('',#60,1.);
#60 = DIRECTION('',(2.692467822432E-02,-0.999637465135,0.));
#61 = CARTESIAN_POINT('',(-4.412846277184E+03,5.688755960387E+03,0.));
#62 = CARTESIAN_POINT('',(-4.377284162184E+03,4.368434796387E+03,0.));
#63 = GEOMETRIC_CURVE_SET('',(#64));
#64 = TRIMMED_CURVE('',#65,(#69,PARAMETER_VALUE(0.)),(#70,
    PARAMETER_VALUE(1.073159368E+03)),.T.,.PARAMETER.);
#65 = LINE('',#66,#67);
#66 = CARTESIAN_POINT('',(-4.497240658E+03,4.365203835E+03,0.));
#67 = VECTOR('',#68,1.);
#68 = DIRECTION('',(1.,0.,0.));
#69 = CARTESIAN_POINT('',(-4.497240658E+03,4.365203835E+03,0.));
#70 = CARTESIAN_POINT('',(-3.42408129E+03,4.365203835E+03,0.));
#71 = GEOMETRIC_CURVE_SET('',(#72));
#72 = TRIMMED_CURVE('',#73,(#77,PARAMETER_VALUE(0.)),(#78,
    PARAMETER_VALUE(1.058992632E+03)),.T.,.PARAMETER.);
#73 = LINE('',#74,#75);
#74 = CARTESIAN_POINT('',(-2.76223329E+03,4.365203835E+03,0.));
#75 = VECTOR('',#76,1.);
#76 = DIRECTION('',(1.,0.,0.));
#77 = CARTESIAN_POINT('',(-2.76223329E+03,4.365203835E+03,0.));
#78 = CARTESIAN_POINT('',(-1.703240658E+03,4.365203835E+03,0.));
#79 = GEOMETRIC_CURVE_SET('',(#80));
#80 = TRIMMED_CURVE('',#81,(#85,PARAMETER_VALUE(0.)),(#86,
    PARAMETER_VALUE(1.073159368E+03)),.T.,.PARAMETER.);
#81 = LINE('',#82,#83);
#82 = CARTESIAN_POINT('',(-4.497240658E+03,4.485203835E+03,0.));
#83 = VECTOR('',#84,1.);
#84 = DIRECTION('',(1.,0.,0.));
#85 = CARTESIAN_POINT('',(-4.497240658E+03,4.485203835E+03,0.));
#86 = CARTESIAN_POINT('',(-3.42408129E+03,4.485203835E+03,0.));
#87 = GEOMETRIC_CURVE_SET('',(#88));
#88 = TRIMMED_CURVE('',#89,(#93,PARAMETER_VALUE(0.)),(#94,
    PARAMETER_VALUE(1.058992632E+03)),.T.,.PARAMETER.);
#89 = LINE('',#90,#91);
#90 = CARTESIAN_POINT('',(-2.76223329E+03,4.485203835E+03,0.));
#91 = VECTOR('',#92,1.);
#92 = DIRECTION('',(1.,0.,0.));
#93 = CARTESIAN_POINT('',(-2.76223329E+03,4.485203835E+03,0.));
#94 = CARTESIAN_POINT('',(-1.703240658E+03,4.485203835E+03,0.));
#95 = GEOMETRIC_CURVE_SET('',(#96));
#96 = TRIMMED_CURVE('',#97,(#101,PARAMETER_VALUE(0.)),(#102,
    PARAMETER_VALUE(3.276599999719E+03)),.T.,.PARAMETER.);
#97 = LINE('',#98,#99);
#98 = CARTESIAN_POINT('',(-1.678620732E+03,3.451135337E+03,0.));
#99 = VECTOR('',#100,1.);
#100 = DIRECTION('',(2.692467802221E-02,-0.999637465141,0.));
#101 = CARTESIAN_POINT('',(-1.678620732E+03,3.451135337E+03,0.));
#102 = CARTESIAN_POINT('',(-1.590399332E+03,175.723219,0.));
#103 = GEOMETRIC_CURVE_SET('',(#104));
#104 = TRIMMED_CURVE('',#105,(#109,PARAMETER_VALUE(0.)),(#110,
    PARAMETER_VALUE(3.276599999719E+03)),.T.,.PARAMETER.);
#105 = LINE('',#106,#107);
#106 = CARTESIAN_POINT('',(-1.558664236183E+03,3.454366298363E+03,0.));
#107 = VECTOR('',#108,1.);
#108 = DIRECTION('',(2.692467802221E-02,-0.999637465141,0.));
#109 = CARTESIAN_POINT('',(-1.558664236183E+03,3.454366298363E+03,0.));
#110 = CARTESIAN_POINT('',(-1.470442836183E+03,178.95418036266,0.));
#111 = GEOMETRIC_CURVE_SET('',(#112));
#112 = TRIMMED_CURVE('',#113,(#117,PARAMETER_VALUE(0.)),(#118,
    PARAMETER_VALUE(3.3528E+03)),.T.,.PARAMETER.);
#113 = LINE('',#114,#115);
#114 = CARTESIAN_POINT('',(-1.590399332E+03,175.723219,0.));
#115 = VECTOR('',#116,1.);
#116 = DIRECTION('',(-1.,0.,0.));
#117 = CARTESIAN_POINT('',(-1.590399332E+03,175.723219,0.));
#118 = CARTESIAN_POINT('',(-4.943199332E+03,175.723219,0.));
#119 = GEOMETRIC_CURVE_SET('',(#120));
#120 = TRIMMED_CURVE('',#121,(#125,PARAMETER_VALUE(0.)),(#126,
    PARAMETER_VALUE(330.2)),.T.,.PARAMETER.);
#121 = LINE('',#122,#123);
#122 = CARTESIAN_POINT('',(-5.781399332E+03,175.723219,0.));
#123 = VECTOR('',#124,1.);
#124 = DIRECTION('',(-1.,0.,0.));
#125 = CARTESIAN_POINT('',(-5.781399332E+03,175.723219,0.));
#126 = CARTESIAN_POINT('',(-6.111599332E+03,175.723219,0.));
#127 = GEOMETRIC_CURVE_SET('',(#128));
#128 = TRIMMED_CURVE('',#129,(#133,PARAMETER_VALUE(0.)),(#134,
    PARAMETER_VALUE(1.340974364952E+03)),.T.,.PARAMETER.);
#129 = LINE('',#130,#131);
#130 = CARTESIAN_POINT('',(-6.111599332E+03,175.723219,0.));
#131 = VECTOR('',#132,1.);
#132 = DIRECTION('',(-2.692467815613E-02,0.999637465137,0.));
#133 = CARTESIAN_POINT('',(-6.111599332E+03,175.723219,0.));
#134 = CARTESIAN_POINT('',(-6.147704635192E+03,1.516211433995E+03,0.));
#135 = GEOMETRIC_CURVE_SET('',(#136));
#136 = TRIMMED_CURVE('',#137,(#141,PARAMETER_VALUE(0.)),(#142,
    PARAMETER_VALUE(155.66763394582)),.T.,.PARAMETER.);
#137 = LINE('',#138,#139);
#138 = CARTESIAN_POINT('',(-6.189474450057E+03,3.067007012998E+03,0.));
#139 = VECTOR('',#140,1.);
#140 = DIRECTION('',(-2.692467815614E-02,0.999637465137,0.));
#141 = CARTESIAN_POINT('',(-6.189474450057E+03,3.067007012998E+03,0.));
#142 = CARTESIAN_POINT('',(-6.193665751E+03,3.222618212E+03,0.));
#143 = GEOMETRIC_CURVE_SET('',(#144));
#144 = TRIMMED_CURVE('',#145,(#149,PARAMETER_VALUE(0.)),(#150,
    PARAMETER_VALUE(1.340974364952E+03)),.T.,.PARAMETER.);
#145 = LINE('',#146,#147);
#146 = CARTESIAN_POINT('',(-6.231555827816E+03,172.49225762126,0.));
#147 = VECTOR('',#148,1.);
#148 = DIRECTION('',(-2.692467815613E-02,0.999637465137,0.));
#149 = CARTESIAN_POINT('',(-6.231555827816E+03,172.49225762126,0.));
#150 = CARTESIAN_POINT('',(-6.267661131008E+03,1.512980472616E+03,0.));
#151 = GEOMETRIC_CURVE_SET('',(#152));
#152 = TRIMMED_CURVE('',#153,(#157,PARAMETER_VALUE(0.)),(#158,
    PARAMETER_VALUE(155.66763394582)),.T.,.PARAMETER.);
#153 = LINE('',#154,#155);
#154 = CARTESIAN_POINT('',(-6.309430945873E+03,3.06377605162E+03,0.));
#155 = VECTOR('',#156,1.);
#156 = DIRECTION('',(-2.692467815613E-02,0.999637465137,0.));
#157 = CARTESIAN_POINT('',(-6.309430945873E+03,3.06377605162E+03,0.));
#158 = CARTESIAN_POINT('',(-6.313622246816E+03,3.219387250621E+03,0.));
#159 = GEOMETRIC_CURVE_SET('',(#160));
#160 = TRIMMED_CURVE('',#161,(#165,PARAMETER_VALUE(0.)),(#166,
    PARAMETER_VALUE(2.463800000393E+03)),.T.,.PARAMETER.);
#161 = LINE('',#162,#163);
#162 = CARTESIAN_POINT('',(-6.193665751E+03,3.222618212E+03,0.));
#163 = VECTOR('',#164,1.);
#164 = DIRECTION('',(-2.692467813516E-02,0.999637465138,0.));
#165 = CARTESIAN_POINT('',(-6.193665751E+03,3.222618212E+03,0.));
#166 = CARTESIAN_POINT('',(-6.260002773E+03,5.685524999E+03,0.));
#167 = GEOMETRIC_CURVE_SET('',(#168));
#168 = TRIMMED_CURVE('',#169,(#173,PARAMETER_VALUE(0.)),(#174,
    PARAMETER_VALUE(2.463800000393E+03)),.T.,.PARAMETER.);
#169 = LINE('',#170,#171);
#170 = CARTESIAN_POINT('',(-6.313622246817E+03,3.219387250624E+03,0.));
#171 = VECTOR('',#172,1.);
#172 = DIRECTION('',(-2.692467813516E-02,0.999637465138,0.));
#173 = CARTESIAN_POINT('',(-6.313622246817E+03,3.219387250624E+03,0.));
#174 = CARTESIAN_POINT('',(-6.379959268817E+03,5.682294037624E+03,0.));
#175 = GEOMETRIC_CURVE_SET('',(#176));
#176 = TRIMMED_CURVE('',#177,(#181,PARAMETER_VALUE(0.)),(#182,
    PARAMETER_VALUE(180.)),.T.,.PARAMETER.);
#177 = LINE('',#178,#179);
#178 = CARTESIAN_POINT('',(-6.057737263138E+03,1.518634655042E+03,0.));
#179 = VECTOR('',#180,1.);
#180 = DIRECTION('',(-0.999637465135,-2.692467824333E-02,0.));
#181 = CARTESIAN_POINT('',(-6.057737263138E+03,1.518634655042E+03,0.));
#182 = CARTESIAN_POINT('',(-6.237672006862E+03,1.513788212958E+03,0.));
#183 = GEOMETRIC_CURVE_SET('',(#184));
#184 = TRIMMED_CURVE('',#185,(#189,PARAMETER_VALUE(0.)),(#190,
    PARAMETER_VALUE(180.)),.T.,.PARAMETER.);
#185 = LINE('',#186,#187);
#186 = CARTESIAN_POINT('',(-6.099507078138E+03,3.069430234042E+03,0.));
#187 = VECTOR('',#188,1.);
#188 = DIRECTION('',(-0.999637465135,-2.692467824333E-02,0.));
#189 = CARTESIAN_POINT('',(-6.099507078138E+03,3.069430234042E+03,0.));
#190 = CARTESIAN_POINT('',(-6.279441821862E+03,3.064583791958E+03,0.));
#191 = GEOMETRIC_CURVE_SET('',(#192));
#192 = TRIMMED_CURVE('',#193,(#197,PARAMETER_VALUE(0.)),(#198,
    PARAMETER_VALUE(180.)),.T.,.PARAMETER.);
#193 = LINE('',#194,#195);
#194 = CARTESIAN_POINT('',(-1.793208029862E+03,4.362780613937E+03,0.));
#195 = VECTOR('',#196,1.);
#196 = DIRECTION('',(0.999637465129,2.692467848103E-02,0.));
#197 = CARTESIAN_POINT('',(-1.793208029862E+03,4.362780613937E+03,0.));
#198 = CARTESIAN_POINT('',(-1.613273286138E+03,4.367627056063E+03,0.));
#199 = GEOMETRIC_CURVE_SET('',(#200));
#200 = TRIMMED_CURVE('',#201,(#205,PARAMETER_VALUE(0.)),(#206,
    PARAMETER_VALUE(180.)),.T.,.PARAMETER.);
#201 = LINE('',#202,#203);
#202 = CARTESIAN_POINT('',(-1.768588103862E+03,3.448712115937E+03,0.));
#203 = VECTOR('',#204,1.);
#204 = DIRECTION('',(0.999637465129,2.692467848103E-02,0.));
#205 = CARTESIAN_POINT('',(-1.768588103862E+03,3.448712115937E+03,0.));
#206 = CARTESIAN_POINT('',(-1.588653360138E+03,3.453558558063E+03,0.));
#207 = GEOMETRIC_CURVE_SET('',(#208));
#208 = TRIMMED_CURVE('',#209,(#213,PARAMETER_VALUE(0.)),(#214,
    PARAMETER_VALUE(180.)),.T.,.PARAMETER.);
#209 = LINE('',#210,#211);
#210 = CARTESIAN_POINT('',(-3.42408129E+03,4.275203835E+03,0.));
#211 = VECTOR('',#212,1.);
#212 = DIRECTION('',(0.,1.,0.));
#213 = CARTESIAN_POINT('',(-3.42408129E+03,4.275203835E+03,0.));
#214 = CARTESIAN_POINT('',(-3.42408129E+03,4.455203835E+03,0.));
#215 = GEOMETRIC_CURVE_SET('',(#216));
#216 = TRIMMED_CURVE('',#217,(#221,PARAMETER_VALUE(0.)),(#222,
    PARAMETER_VALUE(180.)),.T.,.PARAMETER.);
#217 = LINE('',#218,#219);
#218 = CARTESIAN_POINT('',(-2.76223329E+03,4.275203835E+03,0.));
#219 = VECTOR('',#220,1.);
#220 = DIRECTION('',(0.,1.,0.));
#221 = CARTESIAN_POINT('',(-2.76223329E+03,4.275203835E+03,0.));
#222 = CARTESIAN_POINT('',(-2.76223329E+03,4.455203835E+03,0.));
#223 = GEOMETRIC_CURVE_SET('',(#224,#231,#238,#245));
#224 = TRIMMED_CURVE('',#225,(#229,PARAMETER_VALUE(0.)),(#230,
    PARAMETER_VALUE(3.16992E+03)),.T.,.PARAMETER.);
#225 = LINE('',#226,#227);
#226 = CARTESIAN_POINT('',(-1.681839332E+03,206.203219,0.));
#227 = VECTOR('',#228,1.);
#228 = DIRECTION('',(-1.,0.,0.));
#229 = CARTESIAN_POINT('',(-1.681839332E+03,206.203219,0.));
#230 = CARTESIAN_POINT('',(-4.851759332E+03,206.203219,0.));
#231 = TRIMMED_CURVE('',#232,(#236,PARAMETER_VALUE(0.)),(#237,
    PARAMETER_VALUE(581.66)),.T.,.PARAMETER.);
#232 = LINE('',#233,#234);
#233 = CARTESIAN_POINT('',(-4.851759332E+03,206.203219,0.));
#234 = VECTOR('',#235,1.);
#235 = DIRECTION('',(0.,1.,0.));
#236 = CARTESIAN_POINT('',(-4.851759332E+03,206.203219,0.));
#237 = CARTESIAN_POINT('',(-4.851759332E+03,787.863219,0.));
#238 = TRIMMED_CURVE('',#239,(#243,PARAMETER_VALUE(0.)),(#244,
    PARAMETER_VALUE(3.16992E+03)),.T.,.PARAMETER.);
#239 = LINE('',#240,#241);
#240 = CARTESIAN_POINT('',(-4.851759332E+03,787.863219,0.));
#241 = VECTOR('',#242,1.);
#242 = DIRECTION('',(1.,0.,0.));
#243 = CARTESIAN_POINT('',(-4.851759332E+03,787.863219,0.));
#244 = CARTESIAN_POINT('',(-1.681839332E+03,787.863219,0.));
#245 = TRIMMED_CURVE('',#246,(#250,PARAMETER_VALUE(0.)),(#251,
    PARAMETER_VALUE(581.66)),.T.,.PARAMETER.);
#246 = LINE('',#247,#248);
#247 = CARTESIAN_POINT('',(-1.681839332E+03,787.863219,0.));
#248 = VECTOR('',#249,1.);
#249 = DIRECTION('',(0.,-1.,0.));
#250 = CARTESIAN_POINT('',(-1.681839332E+03,787.863219,0.));
#251 = CARTESIAN_POINT('',(-1.681839332E+03,206.203219,0.));
#252 = ( GEOMETRIC_REPRESENTATION_CONTEXT(3) 
GLOBAL_UNCERTAINTY_ASSIGNED_CONTEXT((#256)) GLOBAL_UNIT_ASSIGNED_CONTEXT
((#253,#254,#255)) REPRESENTATION_CONTEXT('Context #1',
  '3D Context with UNIT and UNCERTAINTY') );
#253 = ( LENGTH_UNIT() NAMED_UNIT(*) SI_UNIT(.MILLI.,.METRE.) );
#254 = ( NAMED_UNIT(*) PLANE_ANGLE_UNIT() SI_UNIT($,.RADIAN.) );
#255 = ( NAMED_UNIT(*) SI_UNIT($,.STERADIAN.) SOLID_ANGLE_UNIT() );
#256 = UNCERTAINTY_MEASURE_WITH_UNIT(LENGTH_MEASURE(1.E-07),#253,
  'distance_accuracy_value','confusion accuracy');
#257 = PRODUCT_RELATED_PRODUCT_CATEGORY('part',$,(#7));
ENDSEC;
END-ISO-10303-21;
