ISO-10303-21;
HEADER;
FILE_DESCRIPTION(('FreeCAD Model'),'2;1');
FILE_NAME('Open CASCADE Shape Model','2026-09-10T14:31:54',('FreeCAD'),(
    'FreeCAD'),'Open CASCADE STEP processor 7.8','FreeCAD','Unknown');
FILE_SCHEMA(('AUTOMOTIVE_DESIGN { 1 0 10303 214 1 1 1 1 }'));
ENDSEC;
DATA;
#1 = APPLICATION_PROTOCOL_DEFINITION('international standard',
  'automotive_design',2000,#2);
#2 = APPLICATION_CONTEXT(
  'core data for automotive mechanical design processes');
#3 = SHAPE_DEFINITION_REPRESENTATION(#4,#10);
#4 = PRODUCT_DEFINITION_SHAPE('','',#5);
#5 = PRODUCT_DEFINITION('design','',#6,#9);
#6 = PRODUCT_DEFINITION_FORMATION('','',#7);
#7 = PRODUCT('Open CASCADE STEP translator 7.8 15',
  'Open CASCADE STEP translator 7.8 15','',(#8));
#8 = PRODUCT_CONTEXT('',#2,'mechanical');
#9 = PRODUCT_DEFINITION_CONTEXT('part definition',#2,'design');
#10 = SHAPE_REPRESENTATION('',(#11,#15,#23,#31,#39,#47,#55,#63,#71,#79,
    #87,#95,#103,#111,#119,#127,#135,#143,#151,#159,#167,#175,#183,#191,
    #199,#207,#215,#223,#231,#239,#247,#255,#263,#271,#279,#287,#295,
    #303,#311,#319,#327,#335),#364);
#11 = AXIS2_PLACEMENT_3D('',#12,#13,#14);
#12 = CARTESIAN_POINT('',(0.,0.,0.));
#13 = DIRECTION('',(0.,0.,1.));
#14 = DIRECTION('',(1.,0.,-0.));
#15 = GEOMETRIC_CURVE_SET('',(#16));
#16 = TRIMMED_CURVE('',#17,(#21,PARAMETER_VALUE(0.)),(#22,
    PARAMETER_VALUE(179.99999999999)),.T.,.PARAMETER.);
#17 = LINE('',#18,#19);
#18 = CARTESIAN_POINT('',(5.482137801E+03,4.138757243E+03,0.));
#19 = VECTOR('',#20,1.);
#20 = DIRECTION('',(1.,0.,0.));
#21 = CARTESIAN_POINT('',(5.482137801E+03,4.138757243E+03,0.));
#22 = CARTESIAN_POINT('',(5.662137801E+03,4.138757243E+03,0.));
#23 = GEOMETRIC_CURVE_SET('',(#24));
#24 = TRIMMED_CURVE('',#25,(#29,PARAMETER_VALUE(0.)),(#30,
    PARAMETER_VALUE(179.99999999999)),.T.,.PARAMETER.);
#25 = LINE('',#26,#27);
#26 = CARTESIAN_POINT('',(5.482137801E+03,3.466108243E+03,0.));
#27 = VECTOR('',#28,1.);
#28 = DIRECTION('',(1.,0.,0.));
#29 = CARTESIAN_POINT('',(5.482137801E+03,3.466108243E+03,0.));
#30 = CARTESIAN_POINT('',(5.662137801E+03,3.466108243E+03,0.));
#31 = GEOMETRIC_CURVE_SET('',(#32));
#32 = TRIMMED_CURVE('',#33,(#37,PARAMETER_VALUE(0.)),(#38,
    PARAMETER_VALUE(180.)),.T.,.PARAMETER.);
#33 = LINE('',#34,#35);
#34 = CARTESIAN_POINT('',(3.602537801E+03,-613.451808,0.));
#35 = VECTOR('',#36,1.);
#36 = DIRECTION('',(1.,0.,0.));
#37 = CARTESIAN_POINT('',(3.602537801E+03,-613.451808,0.));
#38 = CARTESIAN_POINT('',(3.782537801E+03,-613.451808,0.));
#39 = GEOMETRIC_CURVE_SET('',(#40));
#40 = TRIMMED_CURVE('',#41,(#45,PARAMETER_VALUE(0.)),(#46,
    PARAMETER_VALUE(180.)),.T.,.PARAMETER.);
#41 = LINE('',#42,#43);
#42 = CARTESIAN_POINT('',(3.602537801E+03,-1.477051808E+03,0.));
#43 = VECTOR('',#44,1.);
#44 = DIRECTION('',(1.,0.,0.));
#45 = CARTESIAN_POINT('',(3.602537801E+03,-1.477051808E+03,0.));
#46 = CARTESIAN_POINT('',(3.782537801E+03,-1.477051808E+03,0.));
#47 = GEOMETRIC_CURVE_SET('',(#48));
#48 = TRIMMED_CURVE('',#49,(#53,PARAMETER_VALUE(0.)),(#54,
    PARAMETER_VALUE(659.977326)),.T.,.PARAMETER.);
#49 = LINE('',#50,#51);
#50 = CARTESIAN_POINT('',(3.692537801E+03,5.609548192E+03,0.));
#51 = VECTOR('',#52,1.);
#52 = DIRECTION('',(1.,0.,0.));
#53 = CARTESIAN_POINT('',(3.692537801E+03,5.609548192E+03,0.));
#54 = CARTESIAN_POINT('',(4.352515127E+03,5.609548192E+03,0.));
#55 = GEOMETRIC_CURVE_SET('',(#56));
#56 = TRIMMED_CURVE('',#57,(#61,PARAMETER_VALUE(0.)),(#62,
    PARAMETER_VALUE(426.102674)),.T.,.PARAMETER.);
#57 = LINE('',#58,#59);
#58 = CARTESIAN_POINT('',(5.146035127E+03,5.609548192E+03,0.));
#59 = VECTOR('',#60,1.);
#60 = DIRECTION('',(1.,0.,0.));
#61 = CARTESIAN_POINT('',(5.146035127E+03,5.609548192E+03,0.));
#62 = CARTESIAN_POINT('',(5.572137801E+03,5.609548192E+03,0.));
#63 = GEOMETRIC_CURVE_SET('',(#64));
#64 = TRIMMED_CURVE('',#65,(#69,PARAMETER_VALUE(0.)),(#70,
    PARAMETER_VALUE(659.977326)),.T.,.PARAMETER.);
#65 = LINE('',#66,#67);
#66 = CARTESIAN_POINT('',(3.692537801E+03,5.729548192E+03,0.));
#67 = VECTOR('',#68,1.);
#68 = DIRECTION('',(1.,0.,0.));
#69 = CARTESIAN_POINT('',(3.692537801E+03,5.729548192E+03,0.));
#70 = CARTESIAN_POINT('',(4.352515127E+03,5.729548192E+03,0.));
#71 = GEOMETRIC_CURVE_SET('',(#72));
#72 = TRIMMED_CURVE('',#73,(#77,PARAMETER_VALUE(0.)),(#78,
    PARAMETER_VALUE(426.102674)),.T.,.PARAMETER.);
#73 = LINE('',#74,#75);
#74 = CARTESIAN_POINT('',(5.146035127E+03,5.729548192E+03,0.));
#75 = VECTOR('',#76,1.);
#76 = DIRECTION('',(1.,0.,0.));
#77 = CARTESIAN_POINT('',(5.146035127E+03,5.729548192E+03,0.));
#78 = CARTESIAN_POINT('',(5.572137801E+03,5.729548192E+03,0.));
#79 = GEOMETRIC_CURVE_SET('',(#80));
#80 = TRIMMED_CURVE('',#81,(#85,PARAMETER_VALUE(0.)),(#86,
    PARAMETER_VALUE(1.470790949E+03)),.T.,.PARAMETER.);
#81 = LINE('',#82,#83);
#82 = CARTESIAN_POINT('',(5.572137801E+03,5.609548192E+03,0.));
#83 = VECTOR('',#84,1.);
#84 = DIRECTION('',(0.,-1.,0.));
#85 = CARTESIAN_POINT('',(5.572137801E+03,5.609548192E+03,0.));
#86 = CARTESIAN_POINT('',(5.572137801E+03,4.138757243E+03,0.));
#87 = GEOMETRIC_CURVE_SET('',(#88));
#88 = TRIMMED_CURVE('',#89,(#93,PARAMETER_VALUE(0.)),(#94,
    PARAMETER_VALUE(218.760051)),.T.,.PARAMETER.);
#89 = LINE('',#90,#91);
#90 = CARTESIAN_POINT('',(5.572137801E+03,3.466108243E+03,0.));
#91 = VECTOR('',#92,1.);
#92 = DIRECTION('',(0.,-1.,0.));
#93 = CARTESIAN_POINT('',(5.572137801E+03,3.466108243E+03,0.));
#94 = CARTESIAN_POINT('',(5.572137801E+03,3.247348192E+03,0.));
#95 = GEOMETRIC_CURVE_SET('',(#96));
#96 = TRIMMED_CURVE('',#97,(#101,PARAMETER_VALUE(0.)),(#102,
    PARAMETER_VALUE(3.3528E+03)),.T.,.PARAMETER.);
#97 = LINE('',#98,#99);
#98 = CARTESIAN_POINT('',(5.572137801E+03,3.247348192E+03,0.));
#99 = VECTOR('',#100,1.);
#100 = DIRECTION('',(1.,0.,0.));
#101 = CARTESIAN_POINT('',(5.572137801E+03,3.247348192E+03,0.));
#102 = CARTESIAN_POINT('',(8.924937801E+03,3.247348192E+03,0.));
#103 = GEOMETRIC_CURVE_SET('',(#104));
#104 = TRIMMED_CURVE('',#105,(#109,PARAMETER_VALUE(0.)),(#110,
    PARAMETER_VALUE(187.58761930683)),.T.,.PARAMETER.);
#105 = LINE('',#106,#107);
#106 = CARTESIAN_POINT('',(8.924937801E+03,3.247348192E+03,0.));
#107 = VECTOR('',#108,1.);
#108 = DIRECTION('',(0.953986646611,-0.299849092191,0.));
#109 = CARTESIAN_POINT('',(8.924937801E+03,3.247348192E+03,0.));
#110 = CARTESIAN_POINT('',(9.103893884888E+03,3.191100214645E+03,0.));
#111 = GEOMETRIC_CURVE_SET('',(#112));
#112 = TRIMMED_CURVE('',#113,(#117,PARAMETER_VALUE(0.)),(#118,
    PARAMETER_VALUE(172.51324273167)),.T.,.PARAMETER.);
#113 = LINE('',#114,#115);
#114 = CARTESIAN_POINT('',(9.68115038307E+03,3.009661787224E+03,0.));
#115 = VECTOR('',#116,1.);
#116 = DIRECTION('',(0.953986646611,-0.299849092191,0.));
#117 = CARTESIAN_POINT('',(9.68115038307E+03,3.009661787224E+03,0.));
#118 = CARTESIAN_POINT('',(9.845725713E+03,2.957933848E+03,0.));
#119 = GEOMETRIC_CURVE_SET('',(#120));
#120 = TRIMMED_CURVE('',#121,(#125,PARAMETER_VALUE(0.)),(#126,
    PARAMETER_VALUE(187.58761930683)),.T.,.PARAMETER.);
#121 = LINE('',#122,#123);
#122 = CARTESIAN_POINT('',(8.960919692063E+03,3.361826589593E+03,0.));
#123 = VECTOR('',#124,1.);
#124 = DIRECTION('',(0.953986646611,-0.299849092191,0.));
#125 = CARTESIAN_POINT('',(8.960919692063E+03,3.361826589593E+03,0.));
#126 = CARTESIAN_POINT('',(9.139875775951E+03,3.305578612238E+03,0.));
#127 = GEOMETRIC_CURVE_SET('',(#128));
#128 = TRIMMED_CURVE('',#129,(#133,PARAMETER_VALUE(0.)),(#134,
    PARAMETER_VALUE(172.51324273167)),.T.,.PARAMETER.);
#129 = LINE('',#130,#131);
#130 = CARTESIAN_POINT('',(9.717132274133E+03,3.124140184817E+03,0.));
#131 = VECTOR('',#132,1.);
#132 = DIRECTION('',(0.953986646611,-0.299849092191,0.));
#133 = CARTESIAN_POINT('',(9.717132274133E+03,3.124140184817E+03,0.));
#134 = CARTESIAN_POINT('',(9.881707604063E+03,3.072412245593E+03,0.));
#135 = GEOMETRIC_CURVE_SET('',(#136));
#136 = TRIMMED_CURVE('',#137,(#141,PARAMETER_VALUE(0.)),(#142,
    PARAMETER_VALUE(2.3876E+03)),.T.,.PARAMETER.);
#137 = LINE('',#138,#139);
#138 = CARTESIAN_POINT('',(9.845725713E+03,2.957933848E+03,0.));
#139 = VECTOR('',#140,1.);
#140 = DIRECTION('',(0.,-1.,0.));
#141 = CARTESIAN_POINT('',(9.845725713E+03,2.957933848E+03,0.));
#142 = CARTESIAN_POINT('',(9.845725713E+03,570.333848,0.));
#143 = GEOMETRIC_CURVE_SET('',(#144));
#144 = TRIMMED_CURVE('',#145,(#149,PARAMETER_VALUE(0.)),(#150,
    PARAMETER_VALUE(2.3876E+03)),.T.,.PARAMETER.);
#145 = LINE('',#146,#147);
#146 = CARTESIAN_POINT('',(9.965725713E+03,2.957933848E+03,0.));
#147 = VECTOR('',#148,1.);
#148 = DIRECTION('',(0.,-1.,0.));
#149 = CARTESIAN_POINT('',(9.965725713E+03,2.957933848E+03,0.));
#150 = CARTESIAN_POINT('',(9.965725713E+03,570.333848,0.));
#151 = GEOMETRIC_CURVE_SET('',(#152));
#152 = TRIMMED_CURVE('',#153,(#157,PARAMETER_VALUE(0.)),(#158,
    PARAMETER_VALUE(106.80530311038)),.T.,.PARAMETER.);
#153 = LINE('',#154,#155);
#154 = CARTESIAN_POINT('',(9.845725713E+03,570.333848,0.));
#155 = VECTOR('',#156,1.);
#156 = DIRECTION('',(-0.673652571943,-0.739048179969,0.));
#157 = CARTESIAN_POINT('',(9.845725713E+03,570.333848,0.));
#158 = CARTESIAN_POINT('',(9.773776045863E+03,491.39958312526,0.));
#159 = GEOMETRIC_CURVE_SET('',(#160));
#160 = TRIMMED_CURVE('',#161,(#165,PARAMETER_VALUE(0.)),(#166,
    PARAMETER_VALUE(157.71955860066)),.T.,.PARAMETER.);
#161 = LINE('',#162,#163);
#162 = CARTESIAN_POINT('',(9.335985987297E+03,11.110544729289,0.));
#163 = VECTOR('',#164,1.);
#164 = DIRECTION('',(-0.673652571943,-0.739048179969,0.));
#165 = CARTESIAN_POINT('',(9.335985987297E+03,11.110544729289,0.));
#166 = CARTESIAN_POINT('',(9.229737801E+03,-105.451808,0.));
#167 = GEOMETRIC_CURVE_SET('',(#168));
#168 = TRIMMED_CURVE('',#169,(#173,PARAMETER_VALUE(0.)),(#174,
    PARAMETER_VALUE(106.80530311038)),.T.,.PARAMETER.);
#169 = LINE('',#170,#171);
#170 = CARTESIAN_POINT('',(9.934411494596E+03,489.49553936688,0.));
#171 = VECTOR('',#172,1.);
#172 = DIRECTION('',(-0.673652571943,-0.739048179969,0.));
#173 = CARTESIAN_POINT('',(9.934411494596E+03,489.49553936688,0.));
#174 = CARTESIAN_POINT('',(9.862461827459E+03,410.56127449214,0.));
#175 = GEOMETRIC_CURVE_SET('',(#176));
#176 = TRIMMED_CURVE('',#177,(#181,PARAMETER_VALUE(0.)),(#182,
    PARAMETER_VALUE(157.71955860066)),.T.,.PARAMETER.);
#177 = LINE('',#178,#179);
#178 = CARTESIAN_POINT('',(9.424671768893E+03,-69.72776390382,0.));
#179 = VECTOR('',#180,1.);
#180 = DIRECTION('',(-0.673652571943,-0.739048179969,0.));
#181 = CARTESIAN_POINT('',(9.424671768893E+03,-69.72776390382,0.));
#182 = CARTESIAN_POINT('',(9.318423582596E+03,-186.2901166331,0.));
#183 = GEOMETRIC_CURVE_SET('',(#184));
#184 = TRIMMED_CURVE('',#185,(#189,PARAMETER_VALUE(0.)),(#190,
    PARAMETER_VALUE(1.3716E+03)),.T.,.PARAMETER.);
#185 = LINE('',#186,#187);
#186 = CARTESIAN_POINT('',(9.229737801E+03,-105.451808,0.));
#187 = VECTOR('',#188,1.);
#188 = DIRECTION('',(0.,-1.,0.));
#189 = CARTESIAN_POINT('',(9.229737801E+03,-105.451808,0.));
#190 = CARTESIAN_POINT('',(9.229737801E+03,-1.477051808E+03,0.));
#191 = GEOMETRIC_CURVE_SET('',(#192));
#192 = TRIMMED_CURVE('',#193,(#197,PARAMETER_VALUE(0.)),(#198,
    PARAMETER_VALUE(1.3716E+03)),.T.,.PARAMETER.);
#193 = LINE('',#194,#195);
#194 = CARTESIAN_POINT('',(9.349737801E+03,-105.451808,0.));
#195 = VECTOR('',#196,1.);
#196 = DIRECTION('',(0.,-1.,0.));
#197 = CARTESIAN_POINT('',(9.349737801E+03,-105.451808,0.));
#198 = CARTESIAN_POINT('',(9.349737801E+03,-1.477051808E+03,0.));
#199 = GEOMETRIC_CURVE_SET('',(#200));
#200 = TRIMMED_CURVE('',#201,(#205,PARAMETER_VALUE(0.)),(#206,
    PARAMETER_VALUE(1.573746682E+03)),.T.,.PARAMETER.);
#201 = LINE('',#202,#203);
#202 = CARTESIAN_POINT('',(9.229737801E+03,-1.477051808E+03,0.));
#203 = VECTOR('',#204,1.);
#204 = DIRECTION('',(-1.,0.,0.));
#205 = CARTESIAN_POINT('',(9.229737801E+03,-1.477051808E+03,0.));
#206 = CARTESIAN_POINT('',(7.655991119E+03,-1.477051808E+03,0.));
#207 = GEOMETRIC_CURVE_SET('',(#208));
#208 = TRIMMED_CURVE('',#209,(#213,PARAMETER_VALUE(0.)),(#214,
    PARAMETER_VALUE(2.042492318E+03)),.T.,.PARAMETER.);
#209 = LINE('',#210,#211);
#210 = CARTESIAN_POINT('',(5.735030119E+03,-1.477051808E+03,0.));
#211 = VECTOR('',#212,1.);
#212 = DIRECTION('',(-1.,0.,0.));
#213 = CARTESIAN_POINT('',(5.735030119E+03,-1.477051808E+03,0.));
#214 = CARTESIAN_POINT('',(3.692537801E+03,-1.477051808E+03,0.));
#215 = GEOMETRIC_CURVE_SET('',(#216));
#216 = TRIMMED_CURVE('',#217,(#221,PARAMETER_VALUE(0.)),(#222,
    PARAMETER_VALUE(1.573746682E+03)),.T.,.PARAMETER.);
#217 = LINE('',#218,#219);
#218 = CARTESIAN_POINT('',(9.229737801E+03,-1.597051808E+03,0.));
#219 = VECTOR('',#220,1.);
#220 = DIRECTION('',(-1.,0.,0.));
#221 = CARTESIAN_POINT('',(9.229737801E+03,-1.597051808E+03,0.));
#222 = CARTESIAN_POINT('',(7.655991119E+03,-1.597051808E+03,0.));
#223 = GEOMETRIC_CURVE_SET('',(#224));
#224 = TRIMMED_CURVE('',#225,(#229,PARAMETER_VALUE(0.)),(#230,
    PARAMETER_VALUE(2.042492318E+03)),.T.,.PARAMETER.);
#225 = LINE('',#226,#227);
#226 = CARTESIAN_POINT('',(5.735030119E+03,-1.597051808E+03,0.));
#227 = VECTOR('',#228,1.);
#228 = DIRECTION('',(-1.,0.,0.));
#229 = CARTESIAN_POINT('',(5.735030119E+03,-1.597051808E+03,0.));
#230 = CARTESIAN_POINT('',(3.692537801E+03,-1.597051808E+03,0.));
#231 = GEOMETRIC_CURVE_SET('',(#232));
#232 = TRIMMED_CURVE('',#233,(#237,PARAMETER_VALUE(0.)),(#238,
    PARAMETER_VALUE(6.223E+03)),.T.,.PARAMETER.);
#233 = LINE('',#234,#235);
#234 = CARTESIAN_POINT('',(3.692537801E+03,-613.451808,0.));
#235 = VECTOR('',#236,1.);
#236 = DIRECTION('',(0.,1.,0.));
#237 = CARTESIAN_POINT('',(3.692537801E+03,-613.451808,0.));
#238 = CARTESIAN_POINT('',(3.692537801E+03,5.609548192E+03,0.));
#239 = GEOMETRIC_CURVE_SET('',(#240));
#240 = TRIMMED_CURVE('',#241,(#245,PARAMETER_VALUE(0.)),(#246,
    PARAMETER_VALUE(180.)),.T.,.PARAMETER.);
#241 = LINE('',#242,#243);
#242 = CARTESIAN_POINT('',(4.352515127E+03,5.519548192E+03,0.));
#243 = VECTOR('',#244,1.);
#244 = DIRECTION('',(0.,1.,0.));
#245 = CARTESIAN_POINT('',(4.352515127E+03,5.519548192E+03,0.));
#246 = CARTESIAN_POINT('',(4.352515127E+03,5.699548192E+03,0.));
#247 = GEOMETRIC_CURVE_SET('',(#248));
#248 = TRIMMED_CURVE('',#249,(#253,PARAMETER_VALUE(0.)),(#254,
    PARAMETER_VALUE(180.)),.T.,.PARAMETER.);
#249 = LINE('',#250,#251);
#250 = CARTESIAN_POINT('',(5.146035127E+03,5.519548192E+03,0.));
#251 = VECTOR('',#252,1.);
#252 = DIRECTION('',(0.,1.,0.));
#253 = CARTESIAN_POINT('',(5.146035127E+03,5.519548192E+03,0.));
#254 = CARTESIAN_POINT('',(5.146035127E+03,5.699548192E+03,0.));
#255 = GEOMETRIC_CURVE_SET('',(#256));
#256 = TRIMMED_CURVE('',#257,(#261,PARAMETER_VALUE(0.)),(#262,
    PARAMETER_VALUE(793.52)),.T.,.PARAMETER.);
#257 = LINE('',#258,#259);
#258 = CARTESIAN_POINT('',(4.352515127E+03,5.609548192E+03,0.));
#259 = VECTOR('',#260,1.);
#260 = DIRECTION('',(1.,0.,0.));
#261 = CARTESIAN_POINT('',(4.352515127E+03,5.609548192E+03,0.));
#262 = CARTESIAN_POINT('',(5.146035127E+03,5.609548192E+03,0.));
#263 = GEOMETRIC_CURVE_SET('',(#264));
#264 = TRIMMED_CURVE('',#265,(#269,PARAMETER_VALUE(0.)),(#270,
    PARAMETER_VALUE(180.)),.T.,.PARAMETER.);
#265 = LINE('',#266,#267);
#266 = CARTESIAN_POINT('',(9.076907466617E+03,3.105241416832E+03,0.));
#267 = VECTOR('',#268,1.);
#268 = DIRECTION('',(0.299849093149,0.95398664631,0.));
#269 = CARTESIAN_POINT('',(9.076907466617E+03,3.105241416832E+03,0.));
#270 = CARTESIAN_POINT('',(9.130880303383E+03,3.276959013168E+03,0.));
#271 = GEOMETRIC_CURVE_SET('',(#272));
#272 = TRIMMED_CURVE('',#273,(#277,PARAMETER_VALUE(0.)),(#278,
    PARAMETER_VALUE(180.)),.T.,.PARAMETER.);
#273 = LINE('',#274,#275);
#274 = CARTESIAN_POINT('',(9.654163964617E+03,2.923802988832E+03,0.));
#275 = VECTOR('',#276,1.);
#276 = DIRECTION('',(0.299849093149,0.95398664631,0.));
#277 = CARTESIAN_POINT('',(9.654163964617E+03,2.923802988832E+03,0.));
#278 = CARTESIAN_POINT('',(9.708136801383E+03,3.095520585168E+03,0.));
#279 = GEOMETRIC_CURVE_SET('',(#280));
#280 = TRIMMED_CURVE('',#281,(#285,PARAMETER_VALUE(0.)),(#286,
    PARAMETER_VALUE(605.09913868583)),.T.,.PARAMETER.);
#281 = LINE('',#282,#283);
#282 = CARTESIAN_POINT('',(9.103893885E+03,3.191100215E+03,0.));
#283 = VECTOR('',#284,1.);
#284 = DIRECTION('',(0.95398664631,-0.299849093149,0.));
#285 = CARTESIAN_POINT('',(9.103893885E+03,3.191100215E+03,0.));
#286 = CARTESIAN_POINT('',(9.681150383E+03,3.009661787E+03,0.));
#287 = GEOMETRIC_CURVE_SET('',(#288));
#288 = TRIMMED_CURVE('',#289,(#293,PARAMETER_VALUE(0.)),(#294,
    PARAMETER_VALUE(180.)),.T.,.PARAMETER.);
#289 = LINE('',#290,#291);
#290 = CARTESIAN_POINT('',(9.707261709858E+03,552.02831453499,0.));
#291 = VECTOR('',#292,1.);
#292 = DIRECTION('',(0.739048179359,-0.673652572611,0.));
#293 = CARTESIAN_POINT('',(9.707261709858E+03,552.02831453499,0.));
#294 = CARTESIAN_POINT('',(9.840290382142E+03,430.770851465,0.));
#295 = GEOMETRIC_CURVE_SET('',(#296));
#296 = TRIMMED_CURVE('',#297,(#301,PARAMETER_VALUE(0.)),(#302,
    PARAMETER_VALUE(180.)),.T.,.PARAMETER.);
#297 = LINE('',#298,#299);
#298 = CARTESIAN_POINT('',(9.269471650858E+03,71.739276534997,0.));
#299 = VECTOR('',#300,1.);
#300 = DIRECTION('',(0.739048179359,-0.673652572611,0.));
#301 = CARTESIAN_POINT('',(9.269471650858E+03,71.739276534997,0.));
#302 = CARTESIAN_POINT('',(9.402500323142E+03,-49.51818653499,0.));
#303 = GEOMETRIC_CURVE_SET('',(#304));
#304 = TRIMMED_CURVE('',#305,(#309,PARAMETER_VALUE(0.)),(#310,
    PARAMETER_VALUE(649.87513860909)),.T.,.PARAMETER.);
#305 = LINE('',#306,#307);
#306 = CARTESIAN_POINT('',(9.773776046E+03,491.399583,0.));
#307 = VECTOR('',#308,1.);
#308 = DIRECTION('',(-0.673652572611,-0.739048179359,0.));
#309 = CARTESIAN_POINT('',(9.773776046E+03,491.399583,0.));
#310 = CARTESIAN_POINT('',(9.335985987E+03,11.110545,0.));
#311 = GEOMETRIC_CURVE_SET('',(#312));
#312 = TRIMMED_CURVE('',#313,(#317,PARAMETER_VALUE(0.)),(#318,
    PARAMETER_VALUE(180.)),.T.,.PARAMETER.);
#313 = LINE('',#314,#315);
#314 = CARTESIAN_POINT('',(7.655991119E+03,-1.387051808E+03,0.));
#315 = VECTOR('',#316,1.);
#316 = DIRECTION('',(0.,-1.,0.));
#317 = CARTESIAN_POINT('',(7.655991119E+03,-1.387051808E+03,0.));
#318 = CARTESIAN_POINT('',(7.655991119E+03,-1.567051808E+03,0.));
#319 = GEOMETRIC_CURVE_SET('',(#320));
#320 = TRIMMED_CURVE('',#321,(#325,PARAMETER_VALUE(0.)),(#326,
    PARAMETER_VALUE(180.)),.T.,.PARAMETER.);
#321 = LINE('',#322,#323);
#322 = CARTESIAN_POINT('',(5.735030119E+03,-1.387051808E+03,0.));
#323 = VECTOR('',#324,1.);
#324 = DIRECTION('',(0.,-1.,0.));
#325 = CARTESIAN_POINT('',(5.735030119E+03,-1.387051808E+03,0.));
#326 = CARTESIAN_POINT('',(5.735030119E+03,-1.567051808E+03,0.));
#327 = GEOMETRIC_CURVE_SET('',(#328));
#328 = TRIMMED_CURVE('',#329,(#333,PARAMETER_VALUE(0.)),(#334,
    PARAMETER_VALUE(1.920961E+03)),.T.,.PARAMETER.);
#329 = LINE('',#330,#331);
#330 = CARTESIAN_POINT('',(7.655991119E+03,-1.477051808E+03,0.));
#331 = VECTOR('',#332,1.);
#332 = DIRECTION('',(-1.,0.,0.));
#333 = CARTESIAN_POINT('',(7.655991119E+03,-1.477051808E+03,0.));
#334 = CARTESIAN_POINT('',(5.735030119E+03,-1.477051808E+03,0.));
#335 = GEOMETRIC_CURVE_SET('',(#336,#343,#350,#357));
#336 = TRIMMED_CURVE('',#337,(#341,PARAMETER_VALUE(0.)),(#342,
    PARAMETER_VALUE(711.2)),.T.,.PARAMETER.);
#337 = LINE('',#338,#339);
#338 = CARTESIAN_POINT('',(3.692537801E+03,-486.451808,0.));
#339 = VECTOR('',#340,1.);
#340 = DIRECTION('',(1.,0.,0.));
#341 = CARTESIAN_POINT('',(3.692537801E+03,-486.451808,0.));
#342 = CARTESIAN_POINT('',(4.403737801E+03,-486.451808,0.));
#343 = TRIMMED_CURVE('',#344,(#348,PARAMETER_VALUE(0.)),(#349,
    PARAMETER_VALUE(6.096E+03)),.T.,.PARAMETER.);
#344 = LINE('',#345,#346);
#345 = CARTESIAN_POINT('',(4.403737801E+03,-486.451808,0.));
#346 = VECTOR('',#347,1.);
#347 = DIRECTION('',(0.,1.,0.));
#348 = CARTESIAN_POINT('',(4.403737801E+03,-486.451808,0.));
#349 = CARTESIAN_POINT('',(4.403737801E+03,5.609548192E+03,0.));
#350 = TRIMMED_CURVE('',#351,(#355,PARAMETER_VALUE(0.)),(#356,
    PARAMETER_VALUE(711.2)),.T.,.PARAMETER.);
#351 = LINE('',#352,#353);
#352 = CARTESIAN_POINT('',(4.403737801E+03,5.609548192E+03,0.));
#353 = VECTOR('',#354,1.);
#354 = DIRECTION('',(-1.,0.,0.));
#355 = CARTESIAN_POINT('',(4.403737801E+03,5.609548192E+03,0.));
#356 = CARTESIAN_POINT('',(3.692537801E+03,5.609548192E+03,0.));
#357 = TRIMMED_CURVE('',#358,(#362,PARAMETER_VALUE(0.)),(#363,
    PARAMETER_VALUE(6.096E+03)),.T.,.PARAMETER.);
#358 = LINE('',#359,#360);
#359 = CARTESIAN_POINT('',(3.692537801E+03,5.609548192E+03,0.));
#360 = VECTOR('',#361,1.);
#361 = DIRECTION('',(0.,-1.,0.));
#362 = CARTESIAN_POINT('',(3.692537801E+03,5.609548192E+03,0.));
#363 = CARTESIAN_POINT('',(3.692537801E+03,-486.451808,0.));
#364 = ( GEOMETRIC_REPRESENTATION_CONTEXT(3) 
GLOBAL_UNCERTAINTY_ASSIGNED_CONTEXT((#368)) GLOBAL_UNIT_ASSIGNED_CONTEXT
((#365,#366,#367)) REPRESENTATION_CONTEXT('Context #1',
  '3D Context with UNIT and UNCERTAINTY') );
#365 = ( LENGTH_UNIT() NAMED_UNIT(*) SI_UNIT(.MILLI.,.METRE.) );
#366 = ( NAMED_UNIT(*) PLANE_ANGLE_UNIT() SI_UNIT($,.RADIAN.) );
#367 = ( NAMED_UNIT(*) SI_UNIT($,.STERADIAN.) SOLID_ANGLE_UNIT() );
#368 = UNCERTAINTY_MEASURE_WITH_UNIT(LENGTH_MEASURE(1.E-07),#365,
  'distance_accuracy_value','confusion accuracy');
#369 = PRODUCT_RELATED_PRODUCT_CATEGORY('part',$,(#7));
ENDSEC;
END-ISO-10303-21;
