ISO-10303-21;
HEADER;
FILE_DESCRIPTION(('FreeCAD Model'),'2;1');
FILE_NAME('Open CASCADE Shape Model','2026-09-10T14:31:18',('FreeCAD'),(
    'FreeCAD'),'Open CASCADE STEP processor 7.8','FreeCAD','Unknown');
FILE_SCHEMA(('AUTOMOTIVE_DESIGN { 1 0 10303 214 1 1 1 1 }'));
ENDSEC;
DATA;
#1 = APPLICATION_PROTOCOL_DEFINITION('international standard',
  'automotive_design',2000,#2);
#2 = APPLICATION_CONTEXT(
  'core data for automotive mechanical design processes');
#3 = SHAPE_DEFINITION_REPRESENTATION(#4,#10);
#4 = PRODUCT_DEFINITION_SHAPE('','',#5);
#5 = PRODUCT_DEFINITION('design','',#6,#9);
#6 = PRODUCT_DEFINITION_FORMATION('','',#7);
#7 = PRODUCT('Open CASCADE STEP translator 7.8 1',
  'Open CASCADE STEP translator 7.8 1','',(#8));
#8 = PRODUCT_CONTEXT('',#2,'mechanical');
#9 = PRODUCT_DEFINITION_CONTEXT('part definition',#2,'design');
#10 = SHAPE_REPRESENTATION('',(#11,#15,#23,#31,#39,#47,#55,#63,#71,#79,
    #87,#95,#103,#111,#119,#127,#135,#143,#151,#159,#167,#175,#183,#191,
    #199,#207,#215,#223,#231,#239,#247,#255,#263),#271);
#11 = AXIS2_PLACEMENT_3D('',#12,#13,#14);
#12 = CARTESIAN_POINT('',(0.,0.,0.));
#13 = DIRECTION('',(0.,0.,1.));
#14 = DIRECTION('',(1.,0.,-0.));
#15 = GEOMETRIC_CURVE_SET('',(#16));
#16 = TRIMMED_CURVE('',#17,(#21,PARAMETER_VALUE(0.)),(#22,
    PARAMETER_VALUE(3.480663848082E+03)),.T.,.PARAMETER.);
#17 = LINE('',#18,#19);
#18 = CARTESIAN_POINT('',(3.661271167E+03,3.679282149E+03,0.));
#19 = VECTOR('',#20,1.);
#20 = DIRECTION('',(0.999987923832,-4.914487824717E-03,0.));
#21 = CARTESIAN_POINT('',(3.661271167E+03,3.679282149E+03,0.));
#22 = CARTESIAN_POINT('',(7.141892981999E+03,3.662176468897E+03,0.));
#23 = GEOMETRIC_CURVE_SET('',(#24));
#24 = TRIMMED_CURVE('',#25,(#29,PARAMETER_VALUE(0.)),(#30,
    PARAMETER_VALUE(1.337230151615E+03)),.T.,.PARAMETER.);
#25 = LINE('',#26,#27);
#26 = CARTESIAN_POINT('',(7.810390909001E+03,3.658891104299E+03,0.));
#27 = VECTOR('',#28,1.);
#28 = DIRECTION('',(0.999987923832,-4.914487824717E-03,0.));
#29 = CARTESIAN_POINT('',(7.810390909001E+03,3.658891104299E+03,0.));
#30 = CARTESIAN_POINT('',(9.147604912E+03,3.652319303E+03,0.));
#31 = GEOMETRIC_CURVE_SET('',(#32));
#32 = TRIMMED_CURVE('',#33,(#37,PARAMETER_VALUE(0.)),(#38,
    PARAMETER_VALUE(3.480663848082E+03)),.T.,.PARAMETER.);
#33 = LINE('',#34,#35);
#34 = CARTESIAN_POINT('',(3.661860905539E+03,3.79928069986E+03,0.));
#35 = VECTOR('',#36,1.);
#36 = DIRECTION('',(0.999987923832,-4.914487824717E-03,0.));
#37 = CARTESIAN_POINT('',(3.661860905539E+03,3.79928069986E+03,0.));
#38 = CARTESIAN_POINT('',(7.142482720538E+03,3.782175019756E+03,0.));
#39 = GEOMETRIC_CURVE_SET('',(#40));
#40 = TRIMMED_CURVE('',#41,(#45,PARAMETER_VALUE(0.)),(#46,
    PARAMETER_VALUE(1.337230151615E+03)),.T.,.PARAMETER.);
#41 = LINE('',#42,#43);
#42 = CARTESIAN_POINT('',(7.81098064754E+03,3.778889655159E+03,0.));
#43 = VECTOR('',#44,1.);
#44 = DIRECTION('',(0.999987923832,-4.914487824717E-03,0.));
#45 = CARTESIAN_POINT('',(7.81098064754E+03,3.778889655159E+03,0.));
#46 = CARTESIAN_POINT('',(9.148194650539E+03,3.77231785386E+03,0.));
#47 = GEOMETRIC_CURVE_SET('',(#48));
#48 = TRIMMED_CURVE('',#49,(#53,PARAMETER_VALUE(0.)),(#54,
    PARAMETER_VALUE(264.72808190116)),.T.,.PARAMETER.);
#49 = LINE('',#50,#51);
#50 = CARTESIAN_POINT('',(9.147604912E+03,3.652319303E+03,0.));
#51 = VECTOR('',#52,1.);
#52 = DIRECTION('',(-4.914487937083E-03,-0.999987923831,0.));
#53 = CARTESIAN_POINT('',(9.147604912E+03,3.652319303E+03,0.));
#54 = CARTESIAN_POINT('',(9.146303909035E+03,3.387594418E+03,0.));
#55 = GEOMETRIC_CURVE_SET('',(#56));
#56 = TRIMMED_CURVE('',#57,(#61,PARAMETER_VALUE(0.)),(#62,
    PARAMETER_VALUE(1.528029281737E+03)),.T.,.PARAMETER.);
#57 = LINE('',#58,#59);
#58 = CARTESIAN_POINT('',(9.14151245039E+03,2.412640191998E+03,0.));
#59 = VECTOR('',#60,1.);
#60 = DIRECTION('',(-4.914487937088E-03,-0.999987923831,0.));
#61 = CARTESIAN_POINT('',(9.14151245039E+03,2.412640191998E+03,0.));
#62 = CARTESIAN_POINT('',(9.134002968917E+03,884.6293630004,0.));
#63 = GEOMETRIC_CURVE_SET('',(#64));
#64 = TRIMMED_CURVE('',#65,(#69,PARAMETER_VALUE(0.)),(#70,
    PARAMETER_VALUE(219.70963624889)),.T.,.PARAMETER.);
#65 = LINE('',#66,#67);
#66 = CARTESIAN_POINT('',(9.129211505357E+03,-90.32586300175,0.));
#67 = VECTOR('',#68,1.);
#68 = DIRECTION('',(-4.914487937084E-03,-0.999987923831,0.));
#69 = CARTESIAN_POINT('',(9.129211505357E+03,-90.32586300175,0.));
#70 = CARTESIAN_POINT('',(9.128131745E+03,-310.032846,0.));
#71 = GEOMETRIC_CURVE_SET('',(#72));
#72 = TRIMMED_CURVE('',#73,(#77,PARAMETER_VALUE(0.)),(#78,
    PARAMETER_VALUE(264.72808190116)),.T.,.PARAMETER.);
#73 = LINE('',#74,#75);
#74 = CARTESIAN_POINT('',(9.26760346286E+03,3.651729564448E+03,0.));
#75 = VECTOR('',#76,1.);
#76 = DIRECTION('',(-4.914487937083E-03,-0.999987923831,0.));
#77 = CARTESIAN_POINT('',(9.26760346286E+03,3.651729564448E+03,0.));
#78 = CARTESIAN_POINT('',(9.266302459895E+03,3.387004679447E+03,0.));
#79 = GEOMETRIC_CURVE_SET('',(#80));
#80 = TRIMMED_CURVE('',#81,(#85,PARAMETER_VALUE(0.)),(#86,
    PARAMETER_VALUE(1.528029281737E+03)),.T.,.PARAMETER.);
#81 = LINE('',#82,#83);
#82 = CARTESIAN_POINT('',(9.261511001249E+03,2.412050453446E+03,0.));
#83 = VECTOR('',#84,1.);
#84 = DIRECTION('',(-4.914487937088E-03,-0.999987923831,0.));
#85 = CARTESIAN_POINT('',(9.261511001249E+03,2.412050453446E+03,0.));
#86 = CARTESIAN_POINT('',(9.254001519777E+03,884.03962444795,0.));
#87 = GEOMETRIC_CURVE_SET('',(#88));
#88 = TRIMMED_CURVE('',#89,(#93,PARAMETER_VALUE(0.)),(#94,
    PARAMETER_VALUE(219.70963624889)),.T.,.PARAMETER.);
#89 = LINE('',#90,#91);
#90 = CARTESIAN_POINT('',(9.249210056217E+03,-90.9156015542,0.));
#91 = VECTOR('',#92,1.);
#92 = DIRECTION('',(-4.914487937092E-03,-0.999987923831,0.));
#93 = CARTESIAN_POINT('',(9.249210056217E+03,-90.9156015542,0.));
#94 = CARTESIAN_POINT('',(9.24813029586E+03,-310.6225845524,0.));
#95 = GEOMETRIC_CURVE_SET('',(#96));
#96 = TRIMMED_CURVE('',#97,(#101,PARAMETER_VALUE(0.)),(#102,
    PARAMETER_VALUE(1.647275295772E+03)),.T.,.PARAMETER.);
#97 = LINE('',#98,#99);
#98 = CARTESIAN_POINT('',(9.128131745E+03,-310.032846,0.));
#99 = VECTOR('',#100,1.);
#100 = DIRECTION('',(-0.999987923832,4.914487824717E-03,0.));
#101 = CARTESIAN_POINT('',(9.128131745E+03,-310.032846,0.));
#102 = CARTESIAN_POINT('',(7.480876342002E+03,-301.9373316149,0.));
#103 = GEOMETRIC_CURVE_SET('',(#104));
#104 = TRIMMED_CURVE('',#105,(#109,PARAMETER_VALUE(0.)),(#110,
    PARAMETER_VALUE(30.000000286838)),.T.,.PARAMETER.);
#105 = LINE('',#106,#107);
#106 = CARTESIAN_POINT('',(6.904378304001E+03,-299.1041048117,0.));
#107 = VECTOR('',#108,1.);
#108 = DIRECTION('',(-0.999987923832,4.914487824719E-03,0.));
#109 = CARTESIAN_POINT('',(6.904378304001E+03,-299.1041048117,0.));
#110 = CARTESIAN_POINT('',(6.874378665999E+03,-298.9566701755,0.));
#111 = GEOMETRIC_CURVE_SET('',(#112));
#112 = TRIMMED_CURVE('',#113,(#117,PARAMETER_VALUE(0.)),(#118,
    PARAMETER_VALUE(1.802831704302E+03)),.T.,.PARAMETER.);
#113 = LINE('',#114,#115);
#114 = CARTESIAN_POINT('',(5.444607933003E+03,-291.9299944608,0.));
#115 = VECTOR('',#116,1.);
#116 = DIRECTION('',(-0.999987923832,4.914487824717E-03,0.));
#117 = CARTESIAN_POINT('',(5.444607933003E+03,-291.9299944608,0.));
#118 = CARTESIAN_POINT('',(3.641798E+03,-283.07,0.));
#119 = GEOMETRIC_CURVE_SET('',(#120));
#120 = TRIMMED_CURVE('',#121,(#125,PARAMETER_VALUE(0.)),(#126,
    PARAMETER_VALUE(1.647275295772E+03)),.T.,.PARAMETER.);
#121 = LINE('',#122,#123);
#122 = CARTESIAN_POINT('',(9.127542006461E+03,-430.0313968598,0.));
#123 = VECTOR('',#124,1.);
#124 = DIRECTION('',(-0.999987923832,4.914487824717E-03,0.));
#125 = CARTESIAN_POINT('',(9.127542006461E+03,-430.0313968598,0.));
#126 = CARTESIAN_POINT('',(7.480286603463E+03,-421.9358824747,0.));
#127 = GEOMETRIC_CURVE_SET('',(#128));
#128 = TRIMMED_CURVE('',#129,(#133,PARAMETER_VALUE(0.)),(#134,
    PARAMETER_VALUE(30.000000286838)),.T.,.PARAMETER.);
#129 = LINE('',#130,#131);
#130 = CARTESIAN_POINT('',(6.903788565462E+03,-419.1026556715,0.));
#131 = VECTOR('',#132,1.);
#132 = DIRECTION('',(-0.999987923832,4.914487824719E-03,0.));
#133 = CARTESIAN_POINT('',(6.903788565462E+03,-419.1026556715,0.));
#134 = CARTESIAN_POINT('',(6.87378892746E+03,-418.9552210353,0.));
#135 = GEOMETRIC_CURVE_SET('',(#136));
#136 = TRIMMED_CURVE('',#137,(#141,PARAMETER_VALUE(0.)),(#142,
    PARAMETER_VALUE(1.802831704302E+03)),.T.,.PARAMETER.);
#137 = LINE('',#138,#139);
#138 = CARTESIAN_POINT('',(5.444018194464E+03,-411.9285453206,0.));
#139 = VECTOR('',#140,1.);
#140 = DIRECTION('',(-0.999987923832,4.914487824717E-03,0.));
#141 = CARTESIAN_POINT('',(5.444018194464E+03,-411.9285453206,0.));
#142 = CARTESIAN_POINT('',(3.641208261461E+03,-403.0685508598,0.));
#143 = GEOMETRIC_CURVE_SET('',(#144));
#144 = TRIMMED_CURVE('',#145,(#149,PARAMETER_VALUE(0.)),(#150,
    PARAMETER_VALUE(3.048000000161E+03)),.T.,.PARAMETER.);
#145 = LINE('',#146,#147);
#146 = CARTESIAN_POINT('',(3.641798E+03,-283.07,0.));
#147 = VECTOR('',#148,1.);
#148 = DIRECTION('',(4.914487937086E-03,0.999987923831,0.));
#149 = CARTESIAN_POINT('',(3.641798E+03,-283.07,0.));
#150 = CARTESIAN_POINT('',(3.656777359233E+03,2.764893191999E+03,0.));
#151 = GEOMETRIC_CURVE_SET('',(#152));
#152 = TRIMMED_CURVE('',#153,(#157,PARAMETER_VALUE(0.)),(#158,
    PARAMETER_VALUE(3.048000000161E+03)),.T.,.PARAMETER.);
#153 = LINE('',#154,#155);
#154 = CARTESIAN_POINT('',(3.52179944914E+03,-282.4802614475,0.));
#155 = VECTOR('',#156,1.);
#156 = DIRECTION('',(4.914487937086E-03,0.999987923831,0.));
#157 = CARTESIAN_POINT('',(3.52179944914E+03,-282.4802614475,0.));
#158 = CARTESIAN_POINT('',(3.536778808373E+03,2.765482930551E+03,0.));
#159 = GEOMETRIC_CURVE_SET('',(#160));
#160 = TRIMMED_CURVE('',#161,(#165,PARAMETER_VALUE(0.)),(#166,
    PARAMETER_VALUE(180.)),.T.,.PARAMETER.);
#161 = LINE('',#162,#163);
#162 = CARTESIAN_POINT('',(9.044004055855E+03,885.07166695496,0.));
#163 = VECTOR('',#164,1.);
#164 = DIRECTION('',(0.999987923829,-4.914488388477E-03,0.));
#165 = CARTESIAN_POINT('',(9.044004055855E+03,885.07166695496,0.));
#166 = CARTESIAN_POINT('',(9.224001882145E+03,884.18705904503,0.));
#167 = GEOMETRIC_CURVE_SET('',(#168));
#168 = TRIMMED_CURVE('',#169,(#173,PARAMETER_VALUE(0.)),(#174,
    PARAMETER_VALUE(180.)),.T.,.PARAMETER.);
#169 = LINE('',#170,#171);
#170 = CARTESIAN_POINT('',(9.039212591855E+03,-89.88355904503,0.));
#171 = VECTOR('',#172,1.);
#172 = DIRECTION('',(0.999987923829,-4.914488388477E-03,0.));
#173 = CARTESIAN_POINT('',(9.039212591855E+03,-89.88355904503,0.));
#174 = CARTESIAN_POINT('',(9.219210418145E+03,-90.76816695496,0.));
#175 = GEOMETRIC_CURVE_SET('',(#176));
#176 = TRIMMED_CURVE('',#177,(#181,PARAMETER_VALUE(0.)),(#182,
    PARAMETER_VALUE(974.96699986818)),.T.,.PARAMETER.);
#177 = LINE('',#178,#179);
#178 = CARTESIAN_POINT('',(9.134002969E+03,884.629363,0.));
#179 = VECTOR('',#180,1.);
#180 = DIRECTION('',(-4.914488388476E-03,-0.999987923829,0.));
#181 = CARTESIAN_POINT('',(9.134002969E+03,884.629363,0.));
#182 = CARTESIAN_POINT('',(9.129211505E+03,-90.325863,0.));
#183 = GEOMETRIC_CURVE_SET('',(#184));
#184 = TRIMMED_CURVE('',#185,(#189,PARAMETER_VALUE(0.)),(#190,
    PARAMETER_VALUE(180.)),.T.,.PARAMETER.);
#185 = LINE('',#186,#187);
#186 = CARTESIAN_POINT('',(9.056304995855E+03,3.388036721947E+03,0.));
#187 = VECTOR('',#188,1.);
#188 = DIRECTION('',(0.999987923829,-4.914488300829E-03,0.));
#189 = CARTESIAN_POINT('',(9.056304995855E+03,3.388036721947E+03,0.));
#190 = CARTESIAN_POINT('',(9.236302822145E+03,3.387152114053E+03,0.));
#191 = GEOMETRIC_CURVE_SET('',(#192));
#192 = TRIMMED_CURVE('',#193,(#197,PARAMETER_VALUE(0.)),(#198,
    PARAMETER_VALUE(180.)),.T.,.PARAMETER.);
#193 = LINE('',#194,#195);
#194 = CARTESIAN_POINT('',(9.051513536855E+03,2.413082495947E+03,0.));
#195 = VECTOR('',#196,1.);
#196 = DIRECTION('',(0.999987923829,-4.914488300829E-03,0.));
#197 = CARTESIAN_POINT('',(9.051513536855E+03,2.413082495947E+03,0.));
#198 = CARTESIAN_POINT('',(9.231511363145E+03,2.412197888053E+03,0.));
#199 = GEOMETRIC_CURVE_SET('',(#200));
#200 = TRIMMED_CURVE('',#201,(#205,PARAMETER_VALUE(0.)),(#206,
    PARAMETER_VALUE(974.96599985569)),.T.,.PARAMETER.);
#201 = LINE('',#202,#203);
#202 = CARTESIAN_POINT('',(9.146303909E+03,3.387594418E+03,0.));
#203 = VECTOR('',#204,1.);
#204 = DIRECTION('',(-4.914488300832E-03,-0.999987923829,0.));
#205 = CARTESIAN_POINT('',(9.146303909E+03,3.387594418E+03,0.));
#206 = CARTESIAN_POINT('',(9.14151245E+03,2.412640192E+03,0.));
#207 = GEOMETRIC_CURVE_SET('',(#208));
#208 = TRIMMED_CURVE('',#209,(#213,PARAMETER_VALUE(0.)),(#214,
    PARAMETER_VALUE(180.)),.T.,.PARAMETER.);
#209 = LINE('',#210,#211);
#210 = CARTESIAN_POINT('',(3.746776272145E+03,2.764450888063E+03,0.));
#211 = VECTOR('',#212,1.);
#212 = DIRECTION('',(-0.99998792383,4.914488191935E-03,0.));
#213 = CARTESIAN_POINT('',(3.746776272145E+03,2.764450888063E+03,0.));
#214 = CARTESIAN_POINT('',(3.566778445855E+03,2.765335495937E+03,0.));
#215 = GEOMETRIC_CURVE_SET('',(#216));
#216 = TRIMMED_CURVE('',#217,(#221,PARAMETER_VALUE(0.)),(#222,
    PARAMETER_VALUE(180.)),.T.,.PARAMETER.);
#217 = LINE('',#218,#219);
#218 = CARTESIAN_POINT('',(3.751270080145E+03,3.678839845063E+03,0.));
#219 = VECTOR('',#220,1.);
#220 = DIRECTION('',(-0.99998792383,4.914488191935E-03,0.));
#221 = CARTESIAN_POINT('',(3.751270080145E+03,3.678839845063E+03,0.));
#222 = CARTESIAN_POINT('',(3.571272253855E+03,3.679724452937E+03,0.));
#223 = GEOMETRIC_CURVE_SET('',(#224));
#224 = TRIMMED_CURVE('',#225,(#229,PARAMETER_VALUE(0.)),(#230,
    PARAMETER_VALUE(180.)),.T.,.PARAMETER.);
#225 = LINE('',#226,#227);
#226 = CARTESIAN_POINT('',(7.141450678042E+03,3.572177555855E+03,0.));
#227 = VECTOR('',#228,1.);
#228 = DIRECTION('',(4.914488426478E-03,0.999987923829,0.));
#229 = CARTESIAN_POINT('',(7.141450678042E+03,3.572177555855E+03,0.));
#230 = CARTESIAN_POINT('',(7.142335285958E+03,3.752175382145E+03,0.));
#231 = GEOMETRIC_CURVE_SET('',(#232));
#232 = TRIMMED_CURVE('',#233,(#237,PARAMETER_VALUE(0.)),(#238,
    PARAMETER_VALUE(180.)),.T.,.PARAMETER.);
#233 = LINE('',#234,#235);
#234 = CARTESIAN_POINT('',(7.809948605042E+03,3.568892190855E+03,0.));
#235 = VECTOR('',#236,1.);
#236 = DIRECTION('',(4.914488426483E-03,0.999987923829,0.));
#237 = CARTESIAN_POINT('',(7.809948605042E+03,3.568892190855E+03,0.));
#238 = CARTESIAN_POINT('',(7.810833212958E+03,3.748890017145E+03,0.));
#239 = GEOMETRIC_CURVE_SET('',(#240));
#240 = TRIMMED_CURVE('',#241,(#245,PARAMETER_VALUE(0.)),(#246,
    PARAMETER_VALUE(180.)),.T.,.PARAMETER.);
#241 = LINE('',#242,#243);
#242 = CARTESIAN_POINT('',(7.481318645935E+03,-211.9384188552,0.));
#243 = VECTOR('',#244,1.);
#244 = DIRECTION('',(-4.914488165989E-03,-0.99998792383,0.));
#245 = CARTESIAN_POINT('',(7.481318645935E+03,-211.9384188552,0.));
#246 = CARTESIAN_POINT('',(7.480434038065E+03,-391.9362451447,0.));
#247 = GEOMETRIC_CURVE_SET('',(#248));
#248 = TRIMMED_CURVE('',#249,(#253,PARAMETER_VALUE(0.)),(#254,
    PARAMETER_VALUE(180.)),.T.,.PARAMETER.);
#249 = LINE('',#250,#251);
#250 = CARTESIAN_POINT('',(6.904820607935E+03,-209.1051918552,0.));
#251 = VECTOR('',#252,1.);
#252 = DIRECTION('',(-4.914488165989E-03,-0.99998792383,0.));
#253 = CARTESIAN_POINT('',(6.904820607935E+03,-209.1051918552,0.));
#254 = CARTESIAN_POINT('',(6.903936000065E+03,-389.1030181447,0.));
#255 = GEOMETRIC_CURVE_SET('',(#256));
#256 = TRIMMED_CURVE('',#257,(#261,PARAMETER_VALUE(0.)),(#262,
    PARAMETER_VALUE(180.)),.T.,.PARAMETER.);
#257 = LINE('',#258,#259);
#258 = CARTESIAN_POINT('',(6.874820969859E+03,-208.9577568549,0.));
#259 = VECTOR('',#260,1.);
#260 = DIRECTION('',(-4.914487324807E-03,-0.999987923834,0.));
#261 = CARTESIAN_POINT('',(6.874820969859E+03,-208.9577568549,0.));
#262 = CARTESIAN_POINT('',(6.873936362141E+03,-388.955583145,0.));
#263 = GEOMETRIC_CURVE_SET('',(#264));
#264 = TRIMMED_CURVE('',#265,(#269,PARAMETER_VALUE(0.)),(#270,
    PARAMETER_VALUE(180.)),.T.,.PARAMETER.);
#265 = LINE('',#266,#267);
#266 = CARTESIAN_POINT('',(5.445050236859E+03,-201.9310818549,0.));
#267 = VECTOR('',#268,1.);
#268 = DIRECTION('',(-4.914487324802E-03,-0.999987923834,0.));
#269 = CARTESIAN_POINT('',(5.445050236859E+03,-201.9310818549,0.));
#270 = CARTESIAN_POINT('',(5.444165629141E+03,-381.928908145,0.));
#271 = ( GEOMETRIC_REPRESENTATION_CONTEXT(3) 
GLOBAL_UNCERTAINTY_ASSIGNED_CONTEXT((#275)) GLOBAL_UNIT_ASSIGNED_CONTEXT
((#272,#273,#274)) REPRESENTATION_CONTEXT('Context #1',
  '3D Context with UNIT and UNCERTAINTY') );
#272 = ( LENGTH_UNIT() NAMED_UNIT(*) SI_UNIT(.MILLI.,.METRE.) );
#273 = ( NAMED_UNIT(*) PLANE_ANGLE_UNIT() SI_UNIT($,.RADIAN.) );
#274 = ( NAMED_UNIT(*) SI_UNIT($,.STERADIAN.) SOLID_ANGLE_UNIT() );
#275 = UNCERTAINTY_MEASURE_WITH_UNIT(LENGTH_MEASURE(1.E-07),#272,
  'distance_accuracy_value','confusion accuracy');
#276 = PRODUCT_RELATED_PRODUCT_CATEGORY('part',$,(#7));
ENDSEC;
END-ISO-10303-21;
