ISO-10303-21;
HEADER;
FILE_DESCRIPTION(('FreeCAD Model'),'2;1');
FILE_NAME('Open CASCADE Shape Model','2026-09-10T14:31:19',('FreeCAD'),(
    'FreeCAD'),'Open CASCADE STEP processor 7.8','FreeCAD','Unknown');
FILE_SCHEMA(('AUTOMOTIVE_DESIGN { 1 0 10303 214 1 1 1 1 }'));
ENDSEC;
DATA;
#1 = APPLICATION_PROTOCOL_DEFINITION('international standard',
  'automotive_design',2000,#2);
#2 = APPLICATION_CONTEXT(
  'core data for automotive mechanical design processes');
#3 = SHAPE_DEFINITION_REPRESENTATION(#4,#10);
#4 = PRODUCT_DEFINITION_SHAPE('','',#5);
#5 = PRODUCT_DEFINITION('design','',#6,#9);
#6 = PRODUCT_DEFINITION_FORMATION('','',#7);
#7 = PRODUCT('Open CASCADE STEP translator 7.8 5',
  'Open CASCADE STEP translator 7.8 5','',(#8));
#8 = PRODUCT_CONTEXT('',#2,'mechanical');
#9 = PRODUCT_DEFINITION_CONTEXT('part definition',#2,'design');
#10 = SHAPE_REPRESENTATION('',(#11,#15,#23,#31,#39,#47,#55,#63,#71,#79,
    #87,#95,#103,#111,#119,#127,#135,#164),#193);
#11 = AXIS2_PLACEMENT_3D('',#12,#13,#14);
#12 = CARTESIAN_POINT('',(0.,0.,0.));
#13 = DIRECTION('',(0.,0.,1.));
#14 = DIRECTION('',(1.,0.,-0.));
#15 = GEOMETRIC_CURVE_SET('',(#16));
#16 = TRIMMED_CURVE('',#17,(#21,PARAMETER_VALUE(0.)),(#22,
    PARAMETER_VALUE(399.25310345001)),.T.,.PARAMETER.);
#17 = LINE('',#18,#19);
#18 = CARTESIAN_POINT('',(3.668760847E+03,5.203263745E+03,0.));
#19 = VECTOR('',#20,1.);
#20 = DIRECTION('',(0.99998792383,-4.914488189515E-03,0.));
#21 = CARTESIAN_POINT('',(3.668760847E+03,5.203263745E+03,0.));
#22 = CARTESIAN_POINT('',(4.068009129002E+03,5.201301620338E+03,0.));
#23 = GEOMETRIC_CURVE_SET('',(#24));
#24 = TRIMMED_CURVE('',#25,(#29,PARAMETER_VALUE(0.)),(#30,
    PARAMETER_VALUE(787.45889548531)),.T.,.PARAMETER.);
#25 = LINE('',#26,#27);
#26 = CARTESIAN_POINT('',(4.913286922002E+03,5.197147462442E+03,0.));
#27 = VECTOR('',#28,1.);
#28 = DIRECTION('',(0.99998792383,-4.914488189515E-03,0.));
#29 = CARTESIAN_POINT('',(4.913286922002E+03,5.197147462442E+03,0.));
#30 = CARTESIAN_POINT('',(5.700736308E+03,5.193277505E+03,0.));
#31 = GEOMETRIC_CURVE_SET('',(#32));
#32 = TRIMMED_CURVE('',#33,(#37,PARAMETER_VALUE(0.)),(#38,
    PARAMETER_VALUE(399.25310345001)),.T.,.PARAMETER.);
#33 = LINE('',#34,#35);
#34 = CARTESIAN_POINT('',(3.669350585583E+03,5.32326229586E+03,0.));
#35 = VECTOR('',#36,1.);
#36 = DIRECTION('',(0.99998792383,-4.914488189515E-03,0.));
#37 = CARTESIAN_POINT('',(3.669350585583E+03,5.32326229586E+03,0.));
#38 = CARTESIAN_POINT('',(4.068598867584E+03,5.321300171198E+03,0.));
#39 = GEOMETRIC_CURVE_SET('',(#40));
#40 = TRIMMED_CURVE('',#41,(#45,PARAMETER_VALUE(0.)),(#46,
    PARAMETER_VALUE(787.45889548531)),.T.,.PARAMETER.);
#41 = LINE('',#42,#43);
#42 = CARTESIAN_POINT('',(4.913876660585E+03,5.317146013301E+03,0.));
#43 = VECTOR('',#44,1.);
#44 = DIRECTION('',(0.99998792383,-4.914488189514E-03,0.));
#45 = CARTESIAN_POINT('',(4.913876660585E+03,5.317146013301E+03,0.));
#46 = CARTESIAN_POINT('',(5.701326046583E+03,5.31327605586E+03,0.));
#47 = GEOMETRIC_CURVE_SET('',(#48));
#48 = TRIMMED_CURVE('',#49,(#53,PARAMETER_VALUE(0.)),(#54,
    PARAMETER_VALUE(1.523999999083E+03)),.T.,.PARAMETER.);
#49 = LINE('',#50,#51);
#50 = CARTESIAN_POINT('',(5.700736308E+03,5.193277505E+03,0.));
#51 = VECTOR('',#52,1.);
#52 = DIRECTION('',(-4.914488191933E-03,-0.99998792383,0.));
#53 = CARTESIAN_POINT('',(5.700736308E+03,5.193277505E+03,0.));
#54 = CARTESIAN_POINT('',(5.693246628E+03,3.66929591E+03,0.));
#55 = GEOMETRIC_CURVE_SET('',(#56));
#56 = TRIMMED_CURVE('',#57,(#61,PARAMETER_VALUE(0.)),(#62,
    PARAMETER_VALUE(2.031999999773E+03)),.T.,.PARAMETER.);
#57 = LINE('',#58,#59);
#58 = CARTESIAN_POINT('',(5.693246628E+03,3.66929591E+03,0.));
#59 = VECTOR('',#60,1.);
#60 = DIRECTION('',(-0.999987923832,4.9144876974E-03,0.));
#61 = CARTESIAN_POINT('',(5.693246628E+03,3.66929591E+03,0.));
#62 = CARTESIAN_POINT('',(3.661271167E+03,3.679282149E+03,0.));
#63 = GEOMETRIC_CURVE_SET('',(#64));
#64 = TRIMMED_CURVE('',#65,(#69,PARAMETER_VALUE(0.)),(#70,
    PARAMETER_VALUE(256.91852659148)),.T.,.PARAMETER.);
#65 = LINE('',#66,#67);
#66 = CARTESIAN_POINT('',(3.661271167E+03,3.679282149E+03,0.));
#67 = VECTOR('',#68,1.);
#68 = DIRECTION('',(4.914488188708E-03,0.99998792383,0.));
#69 = CARTESIAN_POINT('',(3.661271167E+03,3.679282149E+03,0.));
#70 = CARTESIAN_POINT('',(3.662533790064E+03,3.936197573E+03,0.));
#71 = GEOMETRIC_CURVE_SET('',(#72));
#72 = TRIMMED_CURVE('',#73,(#77,PARAMETER_VALUE(0.)),(#78,
    PARAMETER_VALUE(709.94647343647)),.T.,.PARAMETER.);
#73 = LINE('',#74,#75);
#74 = CARTESIAN_POINT('',(3.665271823442E+03,4.493325844998E+03,0.));
#75 = VECTOR('',#76,1.);
#76 = DIRECTION('',(4.914488188709E-03,0.99998792383,0.));
#77 = CARTESIAN_POINT('',(3.665271823442E+03,4.493325844998E+03,0.));
#78 = CARTESIAN_POINT('',(3.668760847E+03,5.203263745E+03,0.));
#79 = GEOMETRIC_CURVE_SET('',(#80));
#80 = TRIMMED_CURVE('',#81,(#85,PARAMETER_VALUE(0.)),(#86,
    PARAMETER_VALUE(256.91852659148)),.T.,.PARAMETER.);
#81 = LINE('',#82,#83);
#82 = CARTESIAN_POINT('',(3.54127261614E+03,3.679871887583E+03,0.));
#83 = VECTOR('',#84,1.);
#84 = DIRECTION('',(4.91448818871E-03,0.99998792383,0.));
#85 = CARTESIAN_POINT('',(3.54127261614E+03,3.679871887583E+03,0.));
#86 = CARTESIAN_POINT('',(3.542535239205E+03,3.936787311582E+03,0.));
#87 = GEOMETRIC_CURVE_SET('',(#88));
#88 = TRIMMED_CURVE('',#89,(#93,PARAMETER_VALUE(0.)),(#94,
    PARAMETER_VALUE(709.94647343647)),.T.,.PARAMETER.);
#89 = LINE('',#90,#91);
#90 = CARTESIAN_POINT('',(3.545273272582E+03,4.49391558358E+03,0.));
#91 = VECTOR('',#92,1.);
#92 = DIRECTION('',(4.914488188709E-03,0.99998792383,0.));
#93 = CARTESIAN_POINT('',(3.545273272582E+03,4.49391558358E+03,0.));
#94 = CARTESIAN_POINT('',(3.54876229614E+03,5.203853483583E+03,0.));
#95 = GEOMETRIC_CURVE_SET('',(#96));
#96 = TRIMMED_CURVE('',#97,(#101,PARAMETER_VALUE(0.)),(#102,
    PARAMETER_VALUE(180.)),.T.,.PARAMETER.);
#97 = LINE('',#98,#99);
#98 = CARTESIAN_POINT('',(4.067566825052E+03,5.111302706855E+03,0.));
#99 = VECTOR('',#100,1.);
#100 = DIRECTION('',(4.914488311513E-03,0.999987923829,0.));
#101 = CARTESIAN_POINT('',(4.067566825052E+03,5.111302706855E+03,0.));
#102 = CARTESIAN_POINT('',(4.068451432948E+03,5.291300533145E+03,0.));
#103 = GEOMETRIC_CURVE_SET('',(#104));
#104 = TRIMMED_CURVE('',#105,(#109,PARAMETER_VALUE(0.)),(#110,
    PARAMETER_VALUE(180.)),.T.,.PARAMETER.);
#105 = LINE('',#106,#107);
#106 = CARTESIAN_POINT('',(4.912844618052E+03,5.107148548855E+03,0.));
#107 = VECTOR('',#108,1.);
#108 = DIRECTION('',(4.914488311513E-03,0.999987923829,0.));
#109 = CARTESIAN_POINT('',(4.912844618052E+03,5.107148548855E+03,0.));
#110 = CARTESIAN_POINT('',(4.913729225948E+03,5.287146375145E+03,0.));
#111 = GEOMETRIC_CURVE_SET('',(#112));
#112 = TRIMMED_CURVE('',#113,(#117,PARAMETER_VALUE(0.)),(#118,
    PARAMETER_VALUE(845.2880008421)),.T.,.PARAMETER.);
#113 = LINE('',#114,#115);
#114 = CARTESIAN_POINT('',(4.068009129E+03,5.20130162E+03,0.));
#115 = VECTOR('',#116,1.);
#116 = DIRECTION('',(0.999987923829,-4.914488311512E-03,0.));
#117 = CARTESIAN_POINT('',(4.068009129E+03,5.20130162E+03,0.));
#118 = CARTESIAN_POINT('',(4.913286922E+03,5.197147462E+03,0.));
#119 = GEOMETRIC_CURVE_SET('',(#120));
#120 = TRIMMED_CURVE('',#121,(#125,PARAMETER_VALUE(0.)),(#126,
    PARAMETER_VALUE(180.)),.T.,.PARAMETER.);
#121 = LINE('',#122,#123);
#122 = CARTESIAN_POINT('',(3.575272909855E+03,4.493768148876E+03,0.));
#123 = VECTOR('',#124,1.);
#124 = DIRECTION('',(0.999987923833,-4.914487511521E-03,0.));
#125 = CARTESIAN_POINT('',(3.575272909855E+03,4.493768148876E+03,0.));
#126 = CARTESIAN_POINT('',(3.755270736145E+03,4.492883541124E+03,0.));
#127 = GEOMETRIC_CURVE_SET('',(#128));
#128 = TRIMMED_CURVE('',#129,(#133,PARAMETER_VALUE(0.)),(#134,
    PARAMETER_VALUE(180.)),.T.,.PARAMETER.);
#129 = LINE('',#130,#131);
#130 = CARTESIAN_POINT('',(3.572534876855E+03,3.936639876876E+03,0.));
#131 = VECTOR('',#132,1.);
#132 = DIRECTION('',(0.999987923833,-4.914487511516E-03,0.));
#133 = CARTESIAN_POINT('',(3.572534876855E+03,3.936639876876E+03,0.));
#134 = CARTESIAN_POINT('',(3.752532703145E+03,3.935755269124E+03,0.));
#135 = GEOMETRIC_CURVE_SET('',(#136,#143,#150,#157));
#136 = TRIMMED_CURVE('',#137,(#141,PARAMETER_VALUE(0.)),(#142,
    PARAMETER_VALUE(378.91069501532)),.T.,.PARAMETER.);
#137 = LINE('',#138,#139);
#138 = CARTESIAN_POINT('',(5.103319549537E+03,3.779060160874E+03,0.));
#139 = VECTOR('',#140,1.);
#140 = DIRECTION('',(1.,0.,0.));
#141 = CARTESIAN_POINT('',(5.103319549537E+03,3.779060160874E+03,0.));
#142 = CARTESIAN_POINT('',(5.482230244552E+03,3.779060160874E+03,0.));
#143 = TRIMMED_CURVE('',#144,(#148,PARAMETER_VALUE(0.)),(#149,
    PARAMETER_VALUE(373.14001481091)),.T.,.PARAMETER.);
#144 = LINE('',#145,#146);
#145 = CARTESIAN_POINT('',(5.482230244552E+03,3.779060160874E+03,0.));
#146 = VECTOR('',#147,1.);
#147 = DIRECTION('',(0.,1.,0.));
#148 = CARTESIAN_POINT('',(5.482230244552E+03,3.779060160874E+03,0.));
#149 = CARTESIAN_POINT('',(5.482230244552E+03,4.152200175685E+03,0.));
#150 = TRIMMED_CURVE('',#151,(#155,PARAMETER_VALUE(0.)),(#156,
    PARAMETER_VALUE(378.91069501532)),.T.,.PARAMETER.);
#151 = LINE('',#152,#153);
#152 = CARTESIAN_POINT('',(5.482230244552E+03,4.152200175685E+03,0.));
#153 = VECTOR('',#154,1.);
#154 = DIRECTION('',(-1.,0.,0.));
#155 = CARTESIAN_POINT('',(5.482230244552E+03,4.152200175685E+03,0.));
#156 = CARTESIAN_POINT('',(5.103319549537E+03,4.152200175685E+03,0.));
#157 = TRIMMED_CURVE('',#158,(#162,PARAMETER_VALUE(0.)),(#163,
    PARAMETER_VALUE(373.14001481091)),.T.,.PARAMETER.);
#158 = LINE('',#159,#160);
#159 = CARTESIAN_POINT('',(5.103319549537E+03,4.152200175685E+03,0.));
#160 = VECTOR('',#161,1.);
#161 = DIRECTION('',(0.,-1.,0.));
#162 = CARTESIAN_POINT('',(5.103319549537E+03,4.152200175685E+03,0.));
#163 = CARTESIAN_POINT('',(5.103319549537E+03,3.779060160874E+03,0.));
#164 = GEOMETRIC_CURVE_SET('',(#165,#172,#179,#186));
#165 = TRIMMED_CURVE('',#166,(#170,PARAMETER_VALUE(0.)),(#171,
    PARAMETER_VALUE(719.9922443693)),.T.,.PARAMETER.);
#166 = LINE('',#167,#168);
#167 = CARTESIAN_POINT('',(4.740680614801E+03,4.628887048667E+03,0.));
#168 = VECTOR('',#169,1.);
#169 = DIRECTION('',(1.,0.,0.));
#170 = CARTESIAN_POINT('',(4.740680614801E+03,4.628887048667E+03,0.));
#171 = CARTESIAN_POINT('',(5.460672859171E+03,4.628887048667E+03,0.));
#172 = TRIMMED_CURVE('',#173,(#177,PARAMETER_VALUE(0.)),(#178,
    PARAMETER_VALUE(313.74895450143)),.T.,.PARAMETER.);
#173 = LINE('',#174,#175);
#174 = CARTESIAN_POINT('',(5.460672859171E+03,4.628887048667E+03,0.));
#175 = VECTOR('',#176,1.);
#176 = DIRECTION('',(0.,1.,0.));
#177 = CARTESIAN_POINT('',(5.460672859171E+03,4.628887048667E+03,0.));
#178 = CARTESIAN_POINT('',(5.460672859171E+03,4.942636003169E+03,0.));
#179 = TRIMMED_CURVE('',#180,(#184,PARAMETER_VALUE(0.)),(#185,
    PARAMETER_VALUE(719.9922443693)),.T.,.PARAMETER.);
#180 = LINE('',#181,#182);
#181 = CARTESIAN_POINT('',(5.460672859171E+03,4.942636003169E+03,0.));
#182 = VECTOR('',#183,1.);
#183 = DIRECTION('',(-1.,0.,0.));
#184 = CARTESIAN_POINT('',(5.460672859171E+03,4.942636003169E+03,0.));
#185 = CARTESIAN_POINT('',(4.740680614801E+03,4.942636003169E+03,0.));
#186 = TRIMMED_CURVE('',#187,(#191,PARAMETER_VALUE(0.)),(#192,
    PARAMETER_VALUE(313.74895450143)),.T.,.PARAMETER.);
#187 = LINE('',#188,#189);
#188 = CARTESIAN_POINT('',(4.740680614801E+03,4.942636003169E+03,0.));
#189 = VECTOR('',#190,1.);
#190 = DIRECTION('',(0.,-1.,0.));
#191 = CARTESIAN_POINT('',(4.740680614801E+03,4.942636003169E+03,0.));
#192 = CARTESIAN_POINT('',(4.740680614801E+03,4.628887048667E+03,0.));
#193 = ( GEOMETRIC_REPRESENTATION_CONTEXT(3) 
GLOBAL_UNCERTAINTY_ASSIGNED_CONTEXT((#197)) GLOBAL_UNIT_ASSIGNED_CONTEXT
((#194,#195,#196)) REPRESENTATION_CONTEXT('Context #1',
  '3D Context with UNIT and UNCERTAINTY') );
#194 = ( LENGTH_UNIT() NAMED_UNIT(*) SI_UNIT(.MILLI.,.METRE.) );
#195 = ( NAMED_UNIT(*) PLANE_ANGLE_UNIT() SI_UNIT($,.RADIAN.) );
#196 = ( NAMED_UNIT(*) SI_UNIT($,.STERADIAN.) SOLID_ANGLE_UNIT() );
#197 = UNCERTAINTY_MEASURE_WITH_UNIT(LENGTH_MEASURE(1.E-07),#194,
  'distance_accuracy_value','confusion accuracy');
#198 = PRODUCT_RELATED_PRODUCT_CATEGORY('part',$,(#7));
ENDSEC;
END-ISO-10303-21;
