ISO-10303-21;
HEADER;
FILE_DESCRIPTION(('FreeCAD Model'),'2;1');
FILE_NAME('Open CASCADE Shape Model','2026-09-11T16:13:18',('FreeCAD'),(
    'FreeCAD'),'Open CASCADE STEP processor 7.8','FreeCAD','Unknown');
FILE_SCHEMA(('AUTOMOTIVE_DESIGN { 1 0 10303 214 1 1 1 1 }'));
ENDSEC;
DATA;
#1 = APPLICATION_PROTOCOL_DEFINITION('international standard',
  'automotive_design',2000,#2);
#2 = APPLICATION_CONTEXT(
  'core data for automotive mechanical design processes');
#3 = SHAPE_DEFINITION_REPRESENTATION(#4,#10);
#4 = PRODUCT_DEFINITION_SHAPE('','',#5);
#5 = PRODUCT_DEFINITION('design','',#6,#9);
#6 = PRODUCT_DEFINITION_FORMATION('','',#7);
#7 = PRODUCT('Open CASCADE STEP translator 7.8 14',
  'Open CASCADE STEP translator 7.8 14','',(#8));
#8 = PRODUCT_CONTEXT('',#2,'mechanical');
#9 = PRODUCT_DEFINITION_CONTEXT('part definition',#2,'design');
#10 = SHAPE_REPRESENTATION('',(#11,#15,#23,#31,#39,#47,#55,#63,#71,#79,
    #87,#95,#103,#111,#119,#127,#135,#164,#193,#222),#251);
#11 = AXIS2_PLACEMENT_3D('',#12,#13,#14);
#12 = CARTESIAN_POINT('',(0.,0.,0.));
#13 = DIRECTION('',(0.,0.,1.));
#14 = DIRECTION('',(1.,0.,-0.));
#15 = GEOMETRIC_CURVE_SET('',(#16));
#16 = TRIMMED_CURVE('',#17,(#21,PARAMETER_VALUE(0.)),(#22,
    PARAMETER_VALUE(180.)),.T.,.PARAMETER.);
#17 = LINE('',#18,#19);
#18 = CARTESIAN_POINT('',(-3.42408129E+03,4.275203835E+03,0.));
#19 = VECTOR('',#20,1.);
#20 = DIRECTION('',(0.,1.,0.));
#21 = CARTESIAN_POINT('',(-3.42408129E+03,4.275203835E+03,0.));
#22 = CARTESIAN_POINT('',(-3.42408129E+03,4.455203835E+03,0.));
#23 = GEOMETRIC_CURVE_SET('',(#24));
#24 = TRIMMED_CURVE('',#25,(#29,PARAMETER_VALUE(0.)),(#30,
    PARAMETER_VALUE(180.)),.T.,.PARAMETER.);
#25 = LINE('',#26,#27);
#26 = CARTESIAN_POINT('',(-2.76223329E+03,4.275203835E+03,0.));
#27 = VECTOR('',#28,1.);
#28 = DIRECTION('',(0.,1.,0.));
#29 = CARTESIAN_POINT('',(-2.76223329E+03,4.275203835E+03,0.));
#30 = CARTESIAN_POINT('',(-2.76223329E+03,4.455203835E+03,0.));
#31 = GEOMETRIC_CURVE_SET('',(#32));
#32 = TRIMMED_CURVE('',#33,(#37,PARAMETER_VALUE(0.)),(#38,
    PARAMETER_VALUE(899.526991)),.T.,.PARAMETER.);
#33 = LINE('',#34,#35);
#34 = CARTESIAN_POINT('',(-4.497240658E+03,5.685524999E+03,0.));
#35 = VECTOR('',#36,1.);
#36 = DIRECTION('',(1.,0.,0.));
#37 = CARTESIAN_POINT('',(-4.497240658E+03,5.685524999E+03,0.));
#38 = CARTESIAN_POINT('',(-3.597713667E+03,5.685524999E+03,0.));
#39 = GEOMETRIC_CURVE_SET('',(#40));
#40 = TRIMMED_CURVE('',#41,(#45,PARAMETER_VALUE(0.)),(#46,
    PARAMETER_VALUE(1.051114009E+03)),.T.,.PARAMETER.);
#41 = LINE('',#42,#43);
#42 = CARTESIAN_POINT('',(-2.754354667E+03,5.685524999E+03,0.));
#43 = VECTOR('',#44,1.);
#44 = DIRECTION('',(1.,0.,0.));
#45 = CARTESIAN_POINT('',(-2.754354667E+03,5.685524999E+03,0.));
#46 = CARTESIAN_POINT('',(-1.703240658E+03,5.685524999E+03,0.));
#47 = GEOMETRIC_CURVE_SET('',(#48));
#48 = TRIMMED_CURVE('',#49,(#53,PARAMETER_VALUE(0.)),(#54,
    PARAMETER_VALUE(899.526991)),.T.,.PARAMETER.);
#49 = LINE('',#50,#51);
#50 = CARTESIAN_POINT('',(-4.497240658E+03,5.805524999E+03,0.));
#51 = VECTOR('',#52,1.);
#52 = DIRECTION('',(1.,0.,0.));
#53 = CARTESIAN_POINT('',(-4.497240658E+03,5.805524999E+03,0.));
#54 = CARTESIAN_POINT('',(-3.597713667E+03,5.805524999E+03,0.));
#55 = GEOMETRIC_CURVE_SET('',(#56));
#56 = TRIMMED_CURVE('',#57,(#61,PARAMETER_VALUE(0.)),(#62,
    PARAMETER_VALUE(1.051114009E+03)),.T.,.PARAMETER.);
#57 = LINE('',#58,#59);
#58 = CARTESIAN_POINT('',(-2.754354667E+03,5.805524999E+03,0.));
#59 = VECTOR('',#60,1.);
#60 = DIRECTION('',(1.,0.,0.));
#61 = CARTESIAN_POINT('',(-2.754354667E+03,5.805524999E+03,0.));
#62 = CARTESIAN_POINT('',(-1.703240658E+03,5.805524999E+03,0.));
#63 = GEOMETRIC_CURVE_SET('',(#64));
#64 = TRIMMED_CURVE('',#65,(#69,PARAMETER_VALUE(0.)),(#70,
    PARAMETER_VALUE(1.320321164E+03)),.T.,.PARAMETER.);
#65 = LINE('',#66,#67);
#66 = CARTESIAN_POINT('',(-1.703240658E+03,5.685524999E+03,0.));
#67 = VECTOR('',#68,1.);
#68 = DIRECTION('',(0.,-1.,0.));
#69 = CARTESIAN_POINT('',(-1.703240658E+03,5.685524999E+03,0.));
#70 = CARTESIAN_POINT('',(-1.703240658E+03,4.365203835E+03,0.));
#71 = GEOMETRIC_CURVE_SET('',(#72));
#72 = TRIMMED_CURVE('',#73,(#77,PARAMETER_VALUE(0.)),(#78,
    PARAMETER_VALUE(1.320321164E+03)),.T.,.PARAMETER.);
#73 = LINE('',#74,#75);
#74 = CARTESIAN_POINT('',(-1.583240658E+03,5.685524999E+03,0.));
#75 = VECTOR('',#76,1.);
#76 = DIRECTION('',(0.,-1.,0.));
#77 = CARTESIAN_POINT('',(-1.583240658E+03,5.685524999E+03,0.));
#78 = CARTESIAN_POINT('',(-1.583240658E+03,4.365203835E+03,0.));
#79 = GEOMETRIC_CURVE_SET('',(#80));
#80 = TRIMMED_CURVE('',#81,(#85,PARAMETER_VALUE(0.)),(#86,
    PARAMETER_VALUE(1.058992632E+03)),.T.,.PARAMETER.);
#81 = LINE('',#82,#83);
#82 = CARTESIAN_POINT('',(-1.703240658E+03,4.365203835E+03,0.));
#83 = VECTOR('',#84,1.);
#84 = DIRECTION('',(-1.,0.,0.));
#85 = CARTESIAN_POINT('',(-1.703240658E+03,4.365203835E+03,0.));
#86 = CARTESIAN_POINT('',(-2.76223329E+03,4.365203835E+03,0.));
#87 = GEOMETRIC_CURVE_SET('',(#88));
#88 = TRIMMED_CURVE('',#89,(#93,PARAMETER_VALUE(0.)),(#94,
    PARAMETER_VALUE(1.073159368E+03)),.T.,.PARAMETER.);
#89 = LINE('',#90,#91);
#90 = CARTESIAN_POINT('',(-3.42408129E+03,4.365203835E+03,0.));
#91 = VECTOR('',#92,1.);
#92 = DIRECTION('',(-1.,0.,0.));
#93 = CARTESIAN_POINT('',(-3.42408129E+03,4.365203835E+03,0.));
#94 = CARTESIAN_POINT('',(-4.497240658E+03,4.365203835E+03,0.));
#95 = GEOMETRIC_CURVE_SET('',(#96));
#96 = TRIMMED_CURVE('',#97,(#101,PARAMETER_VALUE(0.)),(#102,
    PARAMETER_VALUE(1.320321164E+03)),.T.,.PARAMETER.);
#97 = LINE('',#98,#99);
#98 = CARTESIAN_POINT('',(-4.497240658E+03,4.365203835E+03,0.));
#99 = VECTOR('',#100,1.);
#100 = DIRECTION('',(0.,1.,0.));
#101 = CARTESIAN_POINT('',(-4.497240658E+03,4.365203835E+03,0.));
#102 = CARTESIAN_POINT('',(-4.497240658E+03,5.685524999E+03,0.));
#103 = GEOMETRIC_CURVE_SET('',(#104));
#104 = TRIMMED_CURVE('',#105,(#109,PARAMETER_VALUE(0.)),(#110,
    PARAMETER_VALUE(1.320321164E+03)),.T.,.PARAMETER.);
#105 = LINE('',#106,#107);
#106 = CARTESIAN_POINT('',(-4.617240658E+03,4.365203835E+03,0.));
#107 = VECTOR('',#108,1.);
#108 = DIRECTION('',(0.,1.,0.));
#109 = CARTESIAN_POINT('',(-4.617240658E+03,4.365203835E+03,0.));
#110 = CARTESIAN_POINT('',(-4.617240658E+03,5.685524999E+03,0.));
#111 = GEOMETRIC_CURVE_SET('',(#112));
#112 = TRIMMED_CURVE('',#113,(#117,PARAMETER_VALUE(0.)),(#118,
    PARAMETER_VALUE(180.)),.T.,.PARAMETER.);
#113 = LINE('',#114,#115);
#114 = CARTESIAN_POINT('',(-3.597713667E+03,5.595524999E+03,0.));
#115 = VECTOR('',#116,1.);
#116 = DIRECTION('',(0.,1.,0.));
#117 = CARTESIAN_POINT('',(-3.597713667E+03,5.595524999E+03,0.));
#118 = CARTESIAN_POINT('',(-3.597713667E+03,5.775524999E+03,0.));
#119 = GEOMETRIC_CURVE_SET('',(#120));
#120 = TRIMMED_CURVE('',#121,(#125,PARAMETER_VALUE(0.)),(#126,
    PARAMETER_VALUE(180.)),.T.,.PARAMETER.);
#121 = LINE('',#122,#123);
#122 = CARTESIAN_POINT('',(-2.754354667E+03,5.595524999E+03,0.));
#123 = VECTOR('',#124,1.);
#124 = DIRECTION('',(0.,1.,0.));
#125 = CARTESIAN_POINT('',(-2.754354667E+03,5.595524999E+03,0.));
#126 = CARTESIAN_POINT('',(-2.754354667E+03,5.775524999E+03,0.));
#127 = GEOMETRIC_CURVE_SET('',(#128));
#128 = TRIMMED_CURVE('',#129,(#133,PARAMETER_VALUE(0.)),(#134,
    PARAMETER_VALUE(843.359)),.T.,.PARAMETER.);
#129 = LINE('',#130,#131);
#130 = CARTESIAN_POINT('',(-3.597713667E+03,5.685524999E+03,0.));
#131 = VECTOR('',#132,1.);
#132 = DIRECTION('',(1.,0.,0.));
#133 = CARTESIAN_POINT('',(-3.597713667E+03,5.685524999E+03,0.));
#134 = CARTESIAN_POINT('',(-2.754354667E+03,5.685524999E+03,0.));
#135 = GEOMETRIC_CURVE_SET('',(#136,#143,#150,#157));
#136 = TRIMMED_CURVE('',#137,(#141,PARAMETER_VALUE(0.)),(#142,
    PARAMETER_VALUE(393.78278963505)),.T.,.PARAMETER.);
#137 = LINE('',#138,#139);
#138 = CARTESIAN_POINT('',(-2.109644503626E+03,4.781574582159E+03,0.));
#139 = VECTOR('',#140,1.);
#140 = DIRECTION('',(1.,0.,0.));
#141 = CARTESIAN_POINT('',(-2.109644503626E+03,4.781574582159E+03,0.));
#142 = CARTESIAN_POINT('',(-1.715861713991E+03,4.781574582159E+03,0.));
#143 = TRIMMED_CURVE('',#144,(#148,PARAMETER_VALUE(0.)),(#149,
    PARAMETER_VALUE(293.54822061019)),.T.,.PARAMETER.);
#144 = LINE('',#145,#146);
#145 = CARTESIAN_POINT('',(-1.715861713991E+03,4.781574582159E+03,0.));
#146 = VECTOR('',#147,1.);
#147 = DIRECTION('',(0.,1.,0.));
#148 = CARTESIAN_POINT('',(-1.715861713991E+03,4.781574582159E+03,0.));
#149 = CARTESIAN_POINT('',(-1.715861713991E+03,5.075122802769E+03,0.));
#150 = TRIMMED_CURVE('',#151,(#155,PARAMETER_VALUE(0.)),(#156,
    PARAMETER_VALUE(393.78278963505)),.T.,.PARAMETER.);
#151 = LINE('',#152,#153);
#152 = CARTESIAN_POINT('',(-1.715861713991E+03,5.075122802769E+03,0.));
#153 = VECTOR('',#154,1.);
#154 = DIRECTION('',(-1.,0.,0.));
#155 = CARTESIAN_POINT('',(-1.715861713991E+03,5.075122802769E+03,0.));
#156 = CARTESIAN_POINT('',(-2.109644503626E+03,5.075122802769E+03,0.));
#157 = TRIMMED_CURVE('',#158,(#162,PARAMETER_VALUE(0.)),(#163,
    PARAMETER_VALUE(293.54822061019)),.T.,.PARAMETER.);
#158 = LINE('',#159,#160);
#159 = CARTESIAN_POINT('',(-2.109644503626E+03,5.075122802769E+03,0.));
#160 = VECTOR('',#161,1.);
#161 = DIRECTION('',(0.,-1.,0.));
#162 = CARTESIAN_POINT('',(-2.109644503626E+03,5.075122802769E+03,0.));
#163 = CARTESIAN_POINT('',(-2.109644503626E+03,4.781574582159E+03,0.));
#164 = GEOMETRIC_CURVE_SET('',(#165,#172,#179,#186));
#165 = TRIMMED_CURVE('',#166,(#170,PARAMETER_VALUE(0.)),(#171,
    PARAMETER_VALUE(590.1877214475)),.T.,.PARAMETER.);
#166 = LINE('',#167,#168);
#167 = CARTESIAN_POINT('',(-2.242717746661E+03,4.424473696703E+03,0.));
#168 = VECTOR('',#169,1.);
#169 = DIRECTION('',(1.,0.,0.));
#170 = CARTESIAN_POINT('',(-2.242717746661E+03,4.424473696703E+03,0.));
#171 = CARTESIAN_POINT('',(-1.652530025213E+03,4.424473696703E+03,0.));
#172 = TRIMMED_CURVE('',#173,(#177,PARAMETER_VALUE(0.)),(#178,
    PARAMETER_VALUE(672.90284960977)),.T.,.PARAMETER.);
#173 = LINE('',#174,#175);
#174 = CARTESIAN_POINT('',(-1.652530025213E+03,4.424473696703E+03,0.));
#175 = VECTOR('',#176,1.);
#176 = DIRECTION('',(0.,1.,0.));
#177 = CARTESIAN_POINT('',(-1.652530025213E+03,4.424473696703E+03,0.));
#178 = CARTESIAN_POINT('',(-1.652530025213E+03,5.097376546313E+03,0.));
#179 = TRIMMED_CURVE('',#180,(#184,PARAMETER_VALUE(0.)),(#185,
    PARAMETER_VALUE(590.1877214475)),.T.,.PARAMETER.);
#180 = LINE('',#181,#182);
#181 = CARTESIAN_POINT('',(-1.652530025213E+03,5.097376546313E+03,0.));
#182 = VECTOR('',#183,1.);
#183 = DIRECTION('',(-1.,0.,0.));
#184 = CARTESIAN_POINT('',(-1.652530025213E+03,5.097376546313E+03,0.));
#185 = CARTESIAN_POINT('',(-2.242717746661E+03,5.097376546313E+03,0.));
#186 = TRIMMED_CURVE('',#187,(#191,PARAMETER_VALUE(0.)),(#192,
    PARAMETER_VALUE(672.90284960977)),.T.,.PARAMETER.);
#187 = LINE('',#188,#189);
#188 = CARTESIAN_POINT('',(-2.242717746661E+03,5.097376546313E+03,0.));
#189 = VECTOR('',#190,1.);
#190 = DIRECTION('',(0.,-1.,0.));
#191 = CARTESIAN_POINT('',(-2.242717746661E+03,5.097376546313E+03,0.));
#192 = CARTESIAN_POINT('',(-2.242717746661E+03,4.424473696703E+03,0.));
#193 = GEOMETRIC_CURVE_SET('',(#194,#201,#208,#215));
#194 = TRIMMED_CURVE('',#195,(#199,PARAMETER_VALUE(0.)),(#200,
    PARAMETER_VALUE(999.3903829353)),.T.,.PARAMETER.);
#195 = LINE('',#196,#197);
#196 = CARTESIAN_POINT('',(-2.793341753754E+03,5.150987290922E+03,0.));
#197 = VECTOR('',#198,1.);
#198 = DIRECTION('',(1.,0.,0.));
#199 = CARTESIAN_POINT('',(-2.793341753754E+03,5.150987290922E+03,0.));
#200 = CARTESIAN_POINT('',(-1.793951370819E+03,5.150987290922E+03,0.));
#201 = TRIMMED_CURVE('',#202,(#206,PARAMETER_VALUE(0.)),(#207,
    PARAMETER_VALUE(451.94263772901)),.T.,.PARAMETER.);
#202 = LINE('',#203,#204);
#203 = CARTESIAN_POINT('',(-1.793951370819E+03,5.150987290922E+03,0.));
#204 = VECTOR('',#205,1.);
#205 = DIRECTION('',(0.,1.,0.));
#206 = CARTESIAN_POINT('',(-1.793951370819E+03,5.150987290922E+03,0.));
#207 = CARTESIAN_POINT('',(-1.793951370819E+03,5.602929928651E+03,0.));
#208 = TRIMMED_CURVE('',#209,(#213,PARAMETER_VALUE(0.)),(#214,
    PARAMETER_VALUE(999.3903829353)),.T.,.PARAMETER.);
#209 = LINE('',#210,#211);
#210 = CARTESIAN_POINT('',(-1.793951370819E+03,5.602929928651E+03,0.));
#211 = VECTOR('',#212,1.);
#212 = DIRECTION('',(-1.,0.,0.));
#213 = CARTESIAN_POINT('',(-1.793951370819E+03,5.602929928651E+03,0.));
#214 = CARTESIAN_POINT('',(-2.793341753754E+03,5.602929928651E+03,0.));
#215 = TRIMMED_CURVE('',#216,(#220,PARAMETER_VALUE(0.)),(#221,
    PARAMETER_VALUE(451.94263772901)),.T.,.PARAMETER.);
#216 = LINE('',#217,#218);
#217 = CARTESIAN_POINT('',(-2.793341753754E+03,5.602929928651E+03,0.));
#218 = VECTOR('',#219,1.);
#219 = DIRECTION('',(0.,-1.,0.));
#220 = CARTESIAN_POINT('',(-2.793341753754E+03,5.602929928651E+03,0.));
#221 = CARTESIAN_POINT('',(-2.793341753754E+03,5.150987290922E+03,0.));
#222 = GEOMETRIC_CURVE_SET('',(#223,#230,#237,#244));
#223 = TRIMMED_CURVE('',#224,(#228,PARAMETER_VALUE(0.)),(#229,
    PARAMETER_VALUE(396.46383913819)),.T.,.PARAMETER.);
#224 = LINE('',#225,#226);
#225 = CARTESIAN_POINT('',(-3.331423498822E+03,5.247868220985E+03,0.));
#226 = VECTOR('',#227,1.);
#227 = DIRECTION('',(1.,0.,0.));
#228 = CARTESIAN_POINT('',(-3.331423498822E+03,5.247868220985E+03,0.));
#229 = CARTESIAN_POINT('',(-2.934959659684E+03,5.247868220985E+03,0.));
#230 = TRIMMED_CURVE('',#231,(#235,PARAMETER_VALUE(0.)),(#236,
    PARAMETER_VALUE(360.75796423848)),.T.,.PARAMETER.);
#231 = LINE('',#232,#233);
#232 = CARTESIAN_POINT('',(-2.934959659684E+03,5.247868220985E+03,0.));
#233 = VECTOR('',#234,1.);
#234 = DIRECTION('',(0.,1.,0.));
#235 = CARTESIAN_POINT('',(-2.934959659684E+03,5.247868220985E+03,0.));
#236 = CARTESIAN_POINT('',(-2.934959659684E+03,5.608626185224E+03,0.));
#237 = TRIMMED_CURVE('',#238,(#242,PARAMETER_VALUE(0.)),(#243,
    PARAMETER_VALUE(396.46383913819)),.T.,.PARAMETER.);
#238 = LINE('',#239,#240);
#239 = CARTESIAN_POINT('',(-2.934959659684E+03,5.608626185224E+03,0.));
#240 = VECTOR('',#241,1.);
#241 = DIRECTION('',(-1.,0.,0.));
#242 = CARTESIAN_POINT('',(-2.934959659684E+03,5.608626185224E+03,0.));
#243 = CARTESIAN_POINT('',(-3.331423498822E+03,5.608626185224E+03,0.));
#244 = TRIMMED_CURVE('',#245,(#249,PARAMETER_VALUE(0.)),(#250,
    PARAMETER_VALUE(360.75796423848)),.T.,.PARAMETER.);
#245 = LINE('',#246,#247);
#246 = CARTESIAN_POINT('',(-3.331423498822E+03,5.608626185224E+03,0.));
#247 = VECTOR('',#248,1.);
#248 = DIRECTION('',(0.,-1.,0.));
#249 = CARTESIAN_POINT('',(-3.331423498822E+03,5.608626185224E+03,0.));
#250 = CARTESIAN_POINT('',(-3.331423498822E+03,5.247868220985E+03,0.));
#251 = ( GEOMETRIC_REPRESENTATION_CONTEXT(3) 
GLOBAL_UNCERTAINTY_ASSIGNED_CONTEXT((#255)) GLOBAL_UNIT_ASSIGNED_CONTEXT
((#252,#253,#254)) REPRESENTATION_CONTEXT('Context #1',
  '3D Context with UNIT and UNCERTAINTY') );
#252 = ( LENGTH_UNIT() NAMED_UNIT(*) SI_UNIT(.MILLI.,.METRE.) );
#253 = ( NAMED_UNIT(*) PLANE_ANGLE_UNIT() SI_UNIT($,.RADIAN.) );
#254 = ( NAMED_UNIT(*) SI_UNIT($,.STERADIAN.) SOLID_ANGLE_UNIT() );
#255 = UNCERTAINTY_MEASURE_WITH_UNIT(LENGTH_MEASURE(1.E-07),#252,
  'distance_accuracy_value','confusion accuracy');
#256 = PRODUCT_RELATED_PRODUCT_CATEGORY('part',$,(#7));
ENDSEC;
END-ISO-10303-21;
