ISO-10303-21;
HEADER;
FILE_DESCRIPTION(('FreeCAD Model'),'2;1');
FILE_NAME('Open CASCADE Shape Model','2026-09-11T16:12:02',('FreeCAD'),(
    'FreeCAD'),'Open CASCADE STEP processor 7.8','FreeCAD','Unknown');
FILE_SCHEMA(('AUTOMOTIVE_DESIGN { 1 0 10303 214 1 1 1 1 }'));
ENDSEC;
DATA;
#1 = APPLICATION_PROTOCOL_DEFINITION('international standard',
  'automotive_design',2000,#2);
#2 = APPLICATION_CONTEXT(
  'core data for automotive mechanical design processes');
#3 = SHAPE_DEFINITION_REPRESENTATION(#4,#10);
#4 = PRODUCT_DEFINITION_SHAPE('','',#5);
#5 = PRODUCT_DEFINITION('design','',#6,#9);
#6 = PRODUCT_DEFINITION_FORMATION('','',#7);
#7 = PRODUCT('Open CASCADE STEP translator 7.8 4',
  'Open CASCADE STEP translator 7.8 4','',(#8));
#8 = PRODUCT_CONTEXT('',#2,'mechanical');
#9 = PRODUCT_DEFINITION_CONTEXT('part definition',#2,'design');
#10 = SHAPE_REPRESENTATION('',(#11,#15,#23,#31,#39,#47,#55,#63,#71,#79,
    #87,#95,#103,#111,#119,#127,#135,#143,#151,#159,#167,#175,#183,#191,
    #199,#207,#215,#244,#273,#302),#331);
#11 = AXIS2_PLACEMENT_3D('',#12,#13,#14);
#12 = CARTESIAN_POINT('',(0.,0.,0.));
#13 = DIRECTION('',(0.,0.,1.));
#14 = DIRECTION('',(1.,0.,-0.));
#15 = GEOMETRIC_CURVE_SET('',(#16));
#16 = TRIMMED_CURVE('',#17,(#21,PARAMETER_VALUE(0.)),(#22,
    PARAMETER_VALUE(3.388926248E+03)),.T.,.PARAMETER.);
#17 = LINE('',#18,#19);
#18 = CARTESIAN_POINT('',(-6.619802E+03,6.415472883E+03,0.));
#19 = VECTOR('',#20,1.);
#20 = DIRECTION('',(1.,0.,0.));
#21 = CARTESIAN_POINT('',(-6.619802E+03,6.415472883E+03,0.));
#22 = CARTESIAN_POINT('',(-3.230875752E+03,6.415472883E+03,0.));
#23 = GEOMETRIC_CURVE_SET('',(#24));
#24 = TRIMMED_CURVE('',#25,(#29,PARAMETER_VALUE(0.)),(#30,
    PARAMETER_VALUE(323.112752)),.T.,.PARAMETER.);
#25 = LINE('',#26,#27);
#26 = CARTESIAN_POINT('',(-2.066114752E+03,6.415472883E+03,0.));
#27 = VECTOR('',#28,1.);
#28 = DIRECTION('',(1.,0.,0.));
#29 = CARTESIAN_POINT('',(-2.066114752E+03,6.415472883E+03,0.));
#30 = CARTESIAN_POINT('',(-1.743002E+03,6.415472883E+03,0.));
#31 = GEOMETRIC_CURVE_SET('',(#32));
#32 = TRIMMED_CURVE('',#33,(#37,PARAMETER_VALUE(0.)),(#38,
    PARAMETER_VALUE(3.388926248E+03)),.T.,.PARAMETER.);
#33 = LINE('',#34,#35);
#34 = CARTESIAN_POINT('',(-6.619802E+03,6.535472883E+03,0.));
#35 = VECTOR('',#36,1.);
#36 = DIRECTION('',(1.,0.,0.));
#37 = CARTESIAN_POINT('',(-6.619802E+03,6.535472883E+03,0.));
#38 = CARTESIAN_POINT('',(-3.230875752E+03,6.535472883E+03,0.));
#39 = GEOMETRIC_CURVE_SET('',(#40));
#40 = TRIMMED_CURVE('',#41,(#45,PARAMETER_VALUE(0.)),(#46,
    PARAMETER_VALUE(323.112752)),.T.,.PARAMETER.);
#41 = LINE('',#42,#43);
#42 = CARTESIAN_POINT('',(-2.066114752E+03,6.535472883E+03,0.));
#43 = VECTOR('',#44,1.);
#44 = DIRECTION('',(1.,0.,0.));
#45 = CARTESIAN_POINT('',(-2.066114752E+03,6.535472883E+03,0.));
#46 = CARTESIAN_POINT('',(-1.743002E+03,6.535472883E+03,0.));
#47 = GEOMETRIC_CURVE_SET('',(#48));
#48 = TRIMMED_CURVE('',#49,(#53,PARAMETER_VALUE(0.)),(#54,
    PARAMETER_VALUE(1.528517E+03)),.T.,.PARAMETER.);
#49 = LINE('',#50,#51);
#50 = CARTESIAN_POINT('',(-1.743002E+03,6.415472883E+03,0.));
#51 = VECTOR('',#52,1.);
#52 = DIRECTION('',(0.,-1.,0.));
#53 = CARTESIAN_POINT('',(-1.743002E+03,6.415472883E+03,0.));
#54 = CARTESIAN_POINT('',(-1.743002E+03,4.886955883E+03,0.));
#55 = GEOMETRIC_CURVE_SET('',(#56));
#56 = TRIMMED_CURVE('',#57,(#61,PARAMETER_VALUE(0.)),(#62,
    PARAMETER_VALUE(60.)),.T.,.PARAMETER.);
#57 = LINE('',#58,#59);
#58 = CARTESIAN_POINT('',(-1.743002E+03,4.087872883E+03,0.));
#59 = VECTOR('',#60,1.);
#60 = DIRECTION('',(0.,-1.,0.));
#61 = CARTESIAN_POINT('',(-1.743002E+03,4.087872883E+03,0.));
#62 = CARTESIAN_POINT('',(-1.743002E+03,4.027872883E+03,0.));
#63 = GEOMETRIC_CURVE_SET('',(#64));
#64 = TRIMMED_CURVE('',#65,(#69,PARAMETER_VALUE(0.)),(#70,
    PARAMETER_VALUE(1.528517E+03)),.T.,.PARAMETER.);
#65 = LINE('',#66,#67);
#66 = CARTESIAN_POINT('',(-1.623002E+03,6.415472883E+03,0.));
#67 = VECTOR('',#68,1.);
#68 = DIRECTION('',(0.,-1.,0.));
#69 = CARTESIAN_POINT('',(-1.623002E+03,6.415472883E+03,0.));
#70 = CARTESIAN_POINT('',(-1.623002E+03,4.886955883E+03,0.));
#71 = GEOMETRIC_CURVE_SET('',(#72));
#72 = TRIMMED_CURVE('',#73,(#77,PARAMETER_VALUE(0.)),(#78,
    PARAMETER_VALUE(60.)),.T.,.PARAMETER.);
#73 = LINE('',#74,#75);
#74 = CARTESIAN_POINT('',(-1.623002E+03,4.087872883E+03,0.));
#75 = VECTOR('',#76,1.);
#76 = DIRECTION('',(0.,-1.,0.));
#77 = CARTESIAN_POINT('',(-1.623002E+03,4.087872883E+03,0.));
#78 = CARTESIAN_POINT('',(-1.623002E+03,4.027872883E+03,0.));
#79 = GEOMETRIC_CURVE_SET('',(#80));
#80 = TRIMMED_CURVE('',#81,(#85,PARAMETER_VALUE(0.)),(#86,
    PARAMETER_VALUE(4.8768E+03)),.T.,.PARAMETER.);
#81 = LINE('',#82,#83);
#82 = CARTESIAN_POINT('',(-1.743002E+03,2.808672883E+03,0.));
#83 = VECTOR('',#84,1.);
#84 = DIRECTION('',(-1.,0.,0.));
#85 = CARTESIAN_POINT('',(-1.743002E+03,2.808672883E+03,0.));
#86 = CARTESIAN_POINT('',(-6.619802E+03,2.808672883E+03,0.));
#87 = GEOMETRIC_CURVE_SET('',(#88));
#88 = TRIMMED_CURVE('',#89,(#93,PARAMETER_VALUE(0.)),(#94,
    PARAMETER_VALUE(4.8768E+03)),.T.,.PARAMETER.);
#89 = LINE('',#90,#91);
#90 = CARTESIAN_POINT('',(-1.743002E+03,2.688672883E+03,0.));
#91 = VECTOR('',#92,1.);
#92 = DIRECTION('',(-1.,0.,0.));
#93 = CARTESIAN_POINT('',(-1.743002E+03,2.688672883E+03,0.));
#94 = CARTESIAN_POINT('',(-6.619802E+03,2.688672883E+03,0.));
#95 = GEOMETRIC_CURVE_SET('',(#96));
#96 = TRIMMED_CURVE('',#97,(#101,PARAMETER_VALUE(0.)),(#102,
    PARAMETER_VALUE(1.185020663E+03)),.T.,.PARAMETER.);
#97 = LINE('',#98,#99);
#98 = CARTESIAN_POINT('',(-6.619802E+03,2.808672883E+03,0.));
#99 = VECTOR('',#100,1.);
#100 = DIRECTION('',(0.,1.,0.));
#101 = CARTESIAN_POINT('',(-6.619802E+03,2.808672883E+03,0.));
#102 = CARTESIAN_POINT('',(-6.619802E+03,3.993693546E+03,0.));
#103 = GEOMETRIC_CURVE_SET('',(#104));
#104 = TRIMMED_CURVE('',#105,(#109,PARAMETER_VALUE(0.)),(#110,
    PARAMETER_VALUE(1.275317337E+03)),.T.,.PARAMETER.);
#105 = LINE('',#106,#107);
#106 = CARTESIAN_POINT('',(-6.619802E+03,5.140155546E+03,0.));
#107 = VECTOR('',#108,1.);
#108 = DIRECTION('',(0.,1.,0.));
#109 = CARTESIAN_POINT('',(-6.619802E+03,5.140155546E+03,0.));
#110 = CARTESIAN_POINT('',(-6.619802E+03,6.415472883E+03,0.));
#111 = GEOMETRIC_CURVE_SET('',(#112));
#112 = TRIMMED_CURVE('',#113,(#117,PARAMETER_VALUE(0.)),(#118,
    PARAMETER_VALUE(1.185020663E+03)),.T.,.PARAMETER.);
#113 = LINE('',#114,#115);
#114 = CARTESIAN_POINT('',(-6.739802E+03,2.808672883E+03,0.));
#115 = VECTOR('',#116,1.);
#116 = DIRECTION('',(0.,1.,0.));
#117 = CARTESIAN_POINT('',(-6.739802E+03,2.808672883E+03,0.));
#118 = CARTESIAN_POINT('',(-6.739802E+03,3.993693546E+03,0.));
#119 = GEOMETRIC_CURVE_SET('',(#120));
#120 = TRIMMED_CURVE('',#121,(#125,PARAMETER_VALUE(0.)),(#126,
    PARAMETER_VALUE(1.275317337E+03)),.T.,.PARAMETER.);
#121 = LINE('',#122,#123);
#122 = CARTESIAN_POINT('',(-6.739802E+03,5.140155546E+03,0.));
#123 = VECTOR('',#124,1.);
#124 = DIRECTION('',(0.,1.,0.));
#125 = CARTESIAN_POINT('',(-6.739802E+03,5.140155546E+03,0.));
#126 = CARTESIAN_POINT('',(-6.739802E+03,6.415472883E+03,0.));
#127 = GEOMETRIC_CURVE_SET('',(#128));
#128 = TRIMMED_CURVE('',#129,(#133,PARAMETER_VALUE(0.)),(#134,
    PARAMETER_VALUE(180.)),.T.,.PARAMETER.);
#129 = LINE('',#130,#131);
#130 = CARTESIAN_POINT('',(-3.230875752E+03,6.325472883E+03,0.));
#131 = VECTOR('',#132,1.);
#132 = DIRECTION('',(0.,1.,0.));
#133 = CARTESIAN_POINT('',(-3.230875752E+03,6.325472883E+03,0.));
#134 = CARTESIAN_POINT('',(-3.230875752E+03,6.505472883E+03,0.));
#135 = GEOMETRIC_CURVE_SET('',(#136));
#136 = TRIMMED_CURVE('',#137,(#141,PARAMETER_VALUE(0.)),(#142,
    PARAMETER_VALUE(180.)),.T.,.PARAMETER.);
#137 = LINE('',#138,#139);
#138 = CARTESIAN_POINT('',(-2.066114752E+03,6.325472883E+03,0.));
#139 = VECTOR('',#140,1.);
#140 = DIRECTION('',(0.,1.,0.));
#141 = CARTESIAN_POINT('',(-2.066114752E+03,6.325472883E+03,0.));
#142 = CARTESIAN_POINT('',(-2.066114752E+03,6.505472883E+03,0.));
#143 = GEOMETRIC_CURVE_SET('',(#144));
#144 = TRIMMED_CURVE('',#145,(#149,PARAMETER_VALUE(0.)),(#150,
    PARAMETER_VALUE(1.164761E+03)),.T.,.PARAMETER.);
#145 = LINE('',#146,#147);
#146 = CARTESIAN_POINT('',(-3.230875752E+03,6.415472883E+03,0.));
#147 = VECTOR('',#148,1.);
#148 = DIRECTION('',(1.,0.,0.));
#149 = CARTESIAN_POINT('',(-3.230875752E+03,6.415472883E+03,0.));
#150 = CARTESIAN_POINT('',(-2.066114752E+03,6.415472883E+03,0.));
#151 = GEOMETRIC_CURVE_SET('',(#152));
#152 = TRIMMED_CURVE('',#153,(#157,PARAMETER_VALUE(0.)),(#158,
    PARAMETER_VALUE(180.)),.T.,.PARAMETER.);
#153 = LINE('',#154,#155);
#154 = CARTESIAN_POINT('',(-1.833002E+03,4.886955883E+03,0.));
#155 = VECTOR('',#156,1.);
#156 = DIRECTION('',(1.,0.,0.));
#157 = CARTESIAN_POINT('',(-1.833002E+03,4.886955883E+03,0.));
#158 = CARTESIAN_POINT('',(-1.653002E+03,4.886955883E+03,0.));
#159 = GEOMETRIC_CURVE_SET('',(#160));
#160 = TRIMMED_CURVE('',#161,(#165,PARAMETER_VALUE(0.)),(#166,
    PARAMETER_VALUE(180.)),.T.,.PARAMETER.);
#161 = LINE('',#162,#163);
#162 = CARTESIAN_POINT('',(-1.833002E+03,4.087872883E+03,0.));
#163 = VECTOR('',#164,1.);
#164 = DIRECTION('',(1.,0.,0.));
#165 = CARTESIAN_POINT('',(-1.833002E+03,4.087872883E+03,0.));
#166 = CARTESIAN_POINT('',(-1.653002E+03,4.087872883E+03,0.));
#167 = GEOMETRIC_CURVE_SET('',(#168));
#168 = TRIMMED_CURVE('',#169,(#173,PARAMETER_VALUE(0.)),(#174,
    PARAMETER_VALUE(799.083)),.T.,.PARAMETER.);
#169 = LINE('',#170,#171);
#170 = CARTESIAN_POINT('',(-1.743002E+03,4.886955883E+03,0.));
#171 = VECTOR('',#172,1.);
#172 = DIRECTION('',(0.,-1.,0.));
#173 = CARTESIAN_POINT('',(-1.743002E+03,4.886955883E+03,0.));
#174 = CARTESIAN_POINT('',(-1.743002E+03,4.087872883E+03,0.));
#175 = GEOMETRIC_CURVE_SET('',(#176));
#176 = TRIMMED_CURVE('',#177,(#181,PARAMETER_VALUE(0.)),(#182,
    PARAMETER_VALUE(180.)),.T.,.PARAMETER.);
#177 = LINE('',#178,#179);
#178 = CARTESIAN_POINT('',(-6.529802E+03,3.993693546E+03,0.));
#179 = VECTOR('',#180,1.);
#180 = DIRECTION('',(-1.,0.,0.));
#181 = CARTESIAN_POINT('',(-6.529802E+03,3.993693546E+03,0.));
#182 = CARTESIAN_POINT('',(-6.709802E+03,3.993693546E+03,0.));
#183 = GEOMETRIC_CURVE_SET('',(#184));
#184 = TRIMMED_CURVE('',#185,(#189,PARAMETER_VALUE(0.)),(#190,
    PARAMETER_VALUE(180.)),.T.,.PARAMETER.);
#185 = LINE('',#186,#187);
#186 = CARTESIAN_POINT('',(-6.529802E+03,5.140155546E+03,0.));
#187 = VECTOR('',#188,1.);
#188 = DIRECTION('',(-1.,0.,0.));
#189 = CARTESIAN_POINT('',(-6.529802E+03,5.140155546E+03,0.));
#190 = CARTESIAN_POINT('',(-6.709802E+03,5.140155546E+03,0.));
#191 = GEOMETRIC_CURVE_SET('',(#192));
#192 = TRIMMED_CURVE('',#193,(#197,PARAMETER_VALUE(0.)),(#198,
    PARAMETER_VALUE(1.146462E+03)),.T.,.PARAMETER.);
#193 = LINE('',#194,#195);
#194 = CARTESIAN_POINT('',(-6.619802E+03,3.993693546E+03,0.));
#195 = VECTOR('',#196,1.);
#196 = DIRECTION('',(0.,1.,0.));
#197 = CARTESIAN_POINT('',(-6.619802E+03,3.993693546E+03,0.));
#198 = CARTESIAN_POINT('',(-6.619802E+03,5.140155546E+03,0.));
#199 = GEOMETRIC_CURVE_SET('',(#200));
#200 = TRIMMED_CURVE('',#201,(#205,PARAMETER_VALUE(0.)),(#206,
    PARAMETER_VALUE(180.)),.T.,.PARAMETER.);
#201 = LINE('',#202,#203);
#202 = CARTESIAN_POINT('',(-1.833002E+03,4.027872883E+03,0.));
#203 = VECTOR('',#204,1.);
#204 = DIRECTION('',(1.,0.,0.));
#205 = CARTESIAN_POINT('',(-1.833002E+03,4.027872883E+03,0.));
#206 = CARTESIAN_POINT('',(-1.653002E+03,4.027872883E+03,0.));
#207 = GEOMETRIC_CURVE_SET('',(#208));
#208 = TRIMMED_CURVE('',#209,(#213,PARAMETER_VALUE(0.)),(#214,
    PARAMETER_VALUE(180.)),.T.,.PARAMETER.);
#209 = LINE('',#210,#211);
#210 = CARTESIAN_POINT('',(-1.833002E+03,2.808672883E+03,0.));
#211 = VECTOR('',#212,1.);
#212 = DIRECTION('',(1.,0.,0.));
#213 = CARTESIAN_POINT('',(-1.833002E+03,2.808672883E+03,0.));
#214 = CARTESIAN_POINT('',(-1.653002E+03,2.808672883E+03,0.));
#215 = GEOMETRIC_CURVE_SET('',(#216,#223,#230,#237));
#216 = TRIMMED_CURVE('',#217,(#221,PARAMETER_VALUE(0.)),(#222,
    PARAMETER_VALUE(2.382288233581E+03)),.T.,.PARAMETER.);
#217 = LINE('',#218,#219);
#218 = CARTESIAN_POINT('',(-5.927738513643E+03,5.961714854431E+03,0.));
#219 = VECTOR('',#220,1.);
#220 = DIRECTION('',(1.,0.,0.));
#221 = CARTESIAN_POINT('',(-5.927738513643E+03,5.961714854431E+03,0.));
#222 = CARTESIAN_POINT('',(-3.545450280062E+03,5.961714854431E+03,0.));
#223 = TRIMMED_CURVE('',#224,(#228,PARAMETER_VALUE(0.)),(#229,
    PARAMETER_VALUE(407.66147379948)),.T.,.PARAMETER.);
#224 = LINE('',#225,#226);
#225 = CARTESIAN_POINT('',(-3.545450280062E+03,5.961714854431E+03,0.));
#226 = VECTOR('',#227,1.);
#227 = DIRECTION('',(0.,1.,0.));
#228 = CARTESIAN_POINT('',(-3.545450280062E+03,5.961714854431E+03,0.));
#229 = CARTESIAN_POINT('',(-3.545450280062E+03,6.369376328231E+03,0.));
#230 = TRIMMED_CURVE('',#231,(#235,PARAMETER_VALUE(0.)),(#236,
    PARAMETER_VALUE(2.382288233581E+03)),.T.,.PARAMETER.);
#231 = LINE('',#232,#233);
#232 = CARTESIAN_POINT('',(-3.545450280062E+03,6.369376328231E+03,0.));
#233 = VECTOR('',#234,1.);
#234 = DIRECTION('',(-1.,0.,0.));
#235 = CARTESIAN_POINT('',(-3.545450280062E+03,6.369376328231E+03,0.));
#236 = CARTESIAN_POINT('',(-5.927738513643E+03,6.369376328231E+03,0.));
#237 = TRIMMED_CURVE('',#238,(#242,PARAMETER_VALUE(0.)),(#243,
    PARAMETER_VALUE(407.66147379948)),.T.,.PARAMETER.);
#238 = LINE('',#239,#240);
#239 = CARTESIAN_POINT('',(-5.927738513643E+03,6.369376328231E+03,0.));
#240 = VECTOR('',#241,1.);
#241 = DIRECTION('',(0.,-1.,0.));
#242 = CARTESIAN_POINT('',(-5.927738513643E+03,6.369376328231E+03,0.));
#243 = CARTESIAN_POINT('',(-5.927738513643E+03,5.961714854431E+03,0.));
#244 = GEOMETRIC_CURVE_SET('',(#245,#252,#259,#266));
#245 = TRIMMED_CURVE('',#246,(#250,PARAMETER_VALUE(0.)),(#251,
    PARAMETER_VALUE(614.66690693169)),.T.,.PARAMETER.);
#246 = LINE('',#247,#248);
#247 = CARTESIAN_POINT('',(-2.579392454545E+03,5.751638956546E+03,0.));
#248 = VECTOR('',#249,1.);
#249 = DIRECTION('',(1.,0.,0.));
#250 = CARTESIAN_POINT('',(-2.579392454545E+03,5.751638956546E+03,0.));
#251 = CARTESIAN_POINT('',(-1.964725547613E+03,5.751638956546E+03,0.));
#252 = TRIMMED_CURVE('',#253,(#257,PARAMETER_VALUE(0.)),(#258,
    PARAMETER_VALUE(551.40020632457)),.T.,.PARAMETER.);
#253 = LINE('',#254,#255);
#254 = CARTESIAN_POINT('',(-1.964725547613E+03,5.751638956546E+03,0.));
#255 = VECTOR('',#256,1.);
#256 = DIRECTION('',(0.,1.,0.));
#257 = CARTESIAN_POINT('',(-1.964725547613E+03,5.751638956546E+03,0.));
#258 = CARTESIAN_POINT('',(-1.964725547613E+03,6.303039162871E+03,0.));
#259 = TRIMMED_CURVE('',#260,(#264,PARAMETER_VALUE(0.)),(#265,
    PARAMETER_VALUE(614.66690693169)),.T.,.PARAMETER.);
#260 = LINE('',#261,#262);
#261 = CARTESIAN_POINT('',(-1.964725547613E+03,6.303039162871E+03,0.));
#262 = VECTOR('',#263,1.);
#263 = DIRECTION('',(-1.,0.,0.));
#264 = CARTESIAN_POINT('',(-1.964725547613E+03,6.303039162871E+03,0.));
#265 = CARTESIAN_POINT('',(-2.579392454545E+03,6.303039162871E+03,0.));
#266 = TRIMMED_CURVE('',#267,(#271,PARAMETER_VALUE(0.)),(#272,
    PARAMETER_VALUE(551.40020632457)),.T.,.PARAMETER.);
#267 = LINE('',#268,#269);
#268 = CARTESIAN_POINT('',(-2.579392454545E+03,6.303039162871E+03,0.));
#269 = VECTOR('',#270,1.);
#270 = DIRECTION('',(0.,-1.,0.));
#271 = CARTESIAN_POINT('',(-2.579392454545E+03,6.303039162871E+03,0.));
#272 = CARTESIAN_POINT('',(-2.579392454545E+03,5.751638956546E+03,0.));
#273 = GEOMETRIC_CURVE_SET('',(#274,#281,#288,#295));
#274 = TRIMMED_CURVE('',#275,(#279,PARAMETER_VALUE(0.)),(#280,
    PARAMETER_VALUE(498.79301163213)),.T.,.PARAMETER.);
#275 = LINE('',#276,#277);
#276 = CARTESIAN_POINT('',(-6.57230085793E+03,4.026558057777E+03,0.));
#277 = VECTOR('',#278,1.);
#278 = DIRECTION('',(1.,0.,0.));
#279 = CARTESIAN_POINT('',(-6.57230085793E+03,4.026558057777E+03,0.));
#280 = CARTESIAN_POINT('',(-6.073507846298E+03,4.026558057777E+03,0.));
#281 = TRIMMED_CURVE('',#282,(#286,PARAMETER_VALUE(0.)),(#287,
    PARAMETER_VALUE(1.755053802212E+03)),.T.,.PARAMETER.);
#282 = LINE('',#283,#284);
#283 = CARTESIAN_POINT('',(-6.073507846298E+03,4.026558057777E+03,0.));
#284 = VECTOR('',#285,1.);
#285 = DIRECTION('',(0.,1.,0.));
#286 = CARTESIAN_POINT('',(-6.073507846298E+03,4.026558057777E+03,0.));
#287 = CARTESIAN_POINT('',(-6.073507846298E+03,5.781611859989E+03,0.));
#288 = TRIMMED_CURVE('',#289,(#293,PARAMETER_VALUE(0.)),(#294,
    PARAMETER_VALUE(498.79301163213)),.T.,.PARAMETER.);
#289 = LINE('',#290,#291);
#290 = CARTESIAN_POINT('',(-6.073507846298E+03,5.781611859989E+03,0.));
#291 = VECTOR('',#292,1.);
#292 = DIRECTION('',(-1.,0.,0.));
#293 = CARTESIAN_POINT('',(-6.073507846298E+03,5.781611859989E+03,0.));
#294 = CARTESIAN_POINT('',(-6.57230085793E+03,5.781611859989E+03,0.));
#295 = TRIMMED_CURVE('',#296,(#300,PARAMETER_VALUE(0.)),(#301,
    PARAMETER_VALUE(1.755053802212E+03)),.T.,.PARAMETER.);
#296 = LINE('',#297,#298);
#297 = CARTESIAN_POINT('',(-6.57230085793E+03,5.781611859989E+03,0.));
#298 = VECTOR('',#299,1.);
#299 = DIRECTION('',(0.,-1.,0.));
#300 = CARTESIAN_POINT('',(-6.57230085793E+03,5.781611859989E+03,0.));
#301 = CARTESIAN_POINT('',(-6.57230085793E+03,4.026558057777E+03,0.));
#302 = GEOMETRIC_CURVE_SET('',(#303,#310,#317,#324));
#303 = TRIMMED_CURVE('',#304,(#308,PARAMETER_VALUE(0.)),(#309,
    PARAMETER_VALUE(3.339900957596E+03)),.T.,.PARAMETER.);
#304 = LINE('',#305,#306);
#305 = CARTESIAN_POINT('',(-6.572302669843E+03,5.762162097875E+03,0.));
#306 = VECTOR('',#307,1.);
#307 = DIRECTION('',(1.,0.,0.));
#308 = CARTESIAN_POINT('',(-6.572302669843E+03,5.762162097875E+03,0.));
#309 = CARTESIAN_POINT('',(-3.232401712247E+03,5.762162097875E+03,0.));
#310 = TRIMMED_CURVE('',#311,(#315,PARAMETER_VALUE(0.)),(#316,
    PARAMETER_VALUE(558.31435822345)),.T.,.PARAMETER.);
#311 = LINE('',#312,#313);
#312 = CARTESIAN_POINT('',(-3.232401712247E+03,5.762162097875E+03,0.));
#313 = VECTOR('',#314,1.);
#314 = DIRECTION('',(0.,1.,0.));
#315 = CARTESIAN_POINT('',(-3.232401712247E+03,5.762162097875E+03,0.));
#316 = CARTESIAN_POINT('',(-3.232401712247E+03,6.320476456099E+03,0.));
#317 = TRIMMED_CURVE('',#318,(#322,PARAMETER_VALUE(0.)),(#323,
    PARAMETER_VALUE(3.339900957596E+03)),.T.,.PARAMETER.);
#318 = LINE('',#319,#320);
#319 = CARTESIAN_POINT('',(-3.232401712247E+03,6.320476456099E+03,0.));
#320 = VECTOR('',#321,1.);
#321 = DIRECTION('',(-1.,0.,0.));
#322 = CARTESIAN_POINT('',(-3.232401712247E+03,6.320476456099E+03,0.));
#323 = CARTESIAN_POINT('',(-6.572302669843E+03,6.320476456099E+03,0.));
#324 = TRIMMED_CURVE('',#325,(#329,PARAMETER_VALUE(0.)),(#330,
    PARAMETER_VALUE(558.31435822345)),.T.,.PARAMETER.);
#325 = LINE('',#326,#327);
#326 = CARTESIAN_POINT('',(-6.572302669843E+03,6.320476456099E+03,0.));
#327 = VECTOR('',#328,1.);
#328 = DIRECTION('',(0.,-1.,0.));
#329 = CARTESIAN_POINT('',(-6.572302669843E+03,6.320476456099E+03,0.));
#330 = CARTESIAN_POINT('',(-6.572302669843E+03,5.762162097875E+03,0.));
#331 = ( GEOMETRIC_REPRESENTATION_CONTEXT(3) 
GLOBAL_UNCERTAINTY_ASSIGNED_CONTEXT((#335)) GLOBAL_UNIT_ASSIGNED_CONTEXT
((#332,#333,#334)) REPRESENTATION_CONTEXT('Context #1',
  '3D Context with UNIT and UNCERTAINTY') );
#332 = ( LENGTH_UNIT() NAMED_UNIT(*) SI_UNIT(.MILLI.,.METRE.) );
#333 = ( NAMED_UNIT(*) PLANE_ANGLE_UNIT() SI_UNIT($,.RADIAN.) );
#334 = ( NAMED_UNIT(*) SI_UNIT($,.STERADIAN.) SOLID_ANGLE_UNIT() );
#335 = UNCERTAINTY_MEASURE_WITH_UNIT(LENGTH_MEASURE(1.E-07),#332,
  'distance_accuracy_value','confusion accuracy');
#336 = PRODUCT_RELATED_PRODUCT_CATEGORY('part',$,(#7));
ENDSEC;
END-ISO-10303-21;
